<svg width="28" height="28" viewBox="0 0 28 28" fill="none" xmlns="http://www.w3.org/2000/svg">
<path d="M4.99999 17L3.99999 17C3.99999 17.5523 4.4477 18 4.99999 18L4.99999 17ZM5.67952 17L5.67952 18H5.67952L5.67952 17ZM8.78892 14L7.78892 14L8.78892 14ZM5.67953 11L5.67953 12H5.67953L5.67953 11ZM4.99999 11L4.99999 10C4.4477 10 3.99999 10.4477 3.99999 11L4.99999 11ZM11 17C11 17.5523 11.4477 18 12 18C12.5523 18 13 17.5523 13 17L11 17ZM12 11L12.8297 10.4419C12.5842 10.0768 12.129 9.91516 11.7082 10.0435C11.2875 10.1719 11 10.5601 11 11L12 11ZM16.036 17L15.2063 17.5581C15.4518 17.9231 15.907 18.0848 16.3278 17.9565C16.7486 17.8281 17.036 17.4399 17.036 17L16.036 17ZM17.036 11C17.036 10.4477 16.5883 10 16.036 10C15.4837 10 15.036 10.4477 15.036 11L17.036 11ZM20.4047 15.6867C20.328 15.1398 19.8224 14.7586 19.2755 14.8353C18.7286 14.912 18.3474 15.4176 18.4241 15.9645L20.4047 15.6867ZM21 17L21 18L21 17ZM23.018 15.6975L24.018 15.6975L23.018 15.6975ZM19.5174 12.3025L20.5174 12.3025L19.5174 12.3025ZM21.1853 11L21.1853 10H21.1853L21.1853 11ZM21.9356 12.089C21.9356 12.6412 22.3834 13.089 22.9356 13.089C23.4879 13.089 23.9356 12.6412 23.9356 12.089L21.9356 12.089ZM4 22L4 21H4L4 22ZM2 20L0.999999 20V20L2 20ZM26 20L25 20L26 20ZM24 22L24 23H24L24 22ZM24 6L24 7H24L24 6ZM26 8L27 8L26 8ZM4 6L4 5H4L4 6ZM2 8L3 8V8L2 8ZM11.7184 24C11.1661 24 10.7184 24.4477 10.7184 25C10.7184 25.5523 11.1661 26 11.7184 26L11.7184 24ZM16.9412 26C17.4934 26 17.9412 25.5523 17.9412 25C17.9412 24.4477 17.4934 24 16.9412 24L16.9412 26ZM3.99999 11.1068L3.99999 17L5.99999 17L5.99999 11.1068L3.99999 11.1068ZM4.99999 18L5.67952 18L5.67952 16L4.99999 16L4.99999 18ZM5.67952 18C7.69889 18 9.78892 16.5641 9.78892 14L7.78892 14C7.78892 15.2366 6.83133 16 5.67952 16L5.67952 18ZM9.78892 14C9.78892 12.7184 9.339 11.6759 8.52261 10.9678C7.72858 10.2792 6.69586 10 5.67953 10L5.67953 12C6.35174 12 6.87371 12.1852 7.21225 12.4788C7.52841 12.753 7.78892 13.2104 7.78892 14L9.78892 14ZM5.67953 10L4.99999 10L4.99999 12L5.67953 12L5.67953 10ZM3.99999 11L3.99999 11.1068L5.99999 11.1068L5.99999 11L3.99999 11ZM13 17L13 11L11 11L11 17L13 17ZM11.1702 11.5581L15.2063 17.5581L16.8658 16.4419L12.8297 10.4419L11.1702 11.5581ZM17.036 17L17.036 11L15.036 11L15.036 17L17.036 17ZM18.4241 15.9645C18.4794 16.359 18.6825 16.8595 19.0984 17.2707C19.5406 17.7079 20.1791 18 21 18L21 16C20.6842 16 20.5574 15.9007 20.5046 15.8485C20.4257 15.7704 20.4043 15.6837 20.4047 15.6867L18.4241 15.9645ZM21 18C21.803 18 22.545 17.86 23.112 17.4666C23.7387 17.0316 24.018 16.3811 24.018 15.6975L22.018 15.6975C22.018 15.7682 22.0051 15.793 22.005 15.7934C22.0044 15.7945 22.0038 15.7958 22.0012 15.7987C21.9985 15.8018 21.9902 15.8106 21.9717 15.8235C21.8848 15.8837 21.6178 16 21 16L21 18ZM24.018 15.6975C24.018 15.3102 23.9493 14.8279 23.6308 14.3604C23.3199 13.9042 22.8466 13.5728 22.2514 13.3233L21.4783 15.1678C21.8509 15.324 21.9542 15.4517 21.978 15.4866C21.9941 15.5102 22.018 15.551 22.018 15.6975L24.018 15.6975ZM22.2514 13.3233C21.9831 13.2108 21.6597 13.1012 21.4353 13.0186C21.1807 12.9248 20.9843 12.8426 20.829 12.7528C20.6773 12.665 20.6081 12.594 20.5751 12.5454C20.5508 12.5097 20.5174 12.4467 20.5174 12.3025L18.5174 12.3025C18.5174 12.8202 18.6564 13.2804 18.921 13.6697C19.1769 14.0461 19.5131 14.3021 19.8274 14.4839C20.138 14.6636 20.468 14.7936 20.7442 14.8954C21.0507 15.0082 21.2627 15.0774 21.4783 15.1678L22.2514 13.3233ZM20.5174 12.3025C20.5174 12.2534 20.5233 12.224 20.5274 12.2094C20.5313 12.1953 20.5352 12.1884 20.5374 12.1849C20.541 12.1792 20.5573 12.1556 20.6141 12.1233C20.6737 12.0894 20.7606 12.0564 20.8719 12.0328C20.9817 12.0094 21.0929 12 21.1853 12L21.1853 10C20.7773 10 20.1693 10.0755 19.6253 10.3848C19.0212 10.7284 18.5174 11.3611 18.5174 12.3025L20.5174 12.3025ZM21.1853 12C21.2415 12 21.3416 12.0118 21.4707 12.0487C21.5966 12.0848 21.7211 12.1365 21.8247 12.1949C21.9336 12.2562 21.9851 12.3054 21.9979 12.3204C22.0116 12.3364 21.9356 12.2559 21.9356 12.089L23.9356 12.089C23.9356 11.6275 23.7259 11.2637 23.5177 11.0203C23.3087 10.7759 23.0502 10.5897 22.8064 10.4524C22.3318 10.185 21.7267 10 21.1853 10L21.1853 12ZM4 7L24 7L24 5L4 5L4 7ZM25 8L25 20L27 20L27 8L25 8ZM24 21L4 21L4 23L24 23L24 21ZM3 20L3 8L1 8L0.999999 20L3 20ZM4 21C3.44771 21 3 20.5523 3 20L0.999999 20C0.999999 21.6569 2.34315 23 4 23L4 21ZM25 20C25 20.5523 24.5523 21 24 21L24 23C25.6569 23 27 21.6569 27 20L25 20ZM24 7C24.5523 7 25 7.44771 25 8L27 8C27 6.34315 25.6569 5 24 5L24 7ZM4 5C2.34315 5 1 6.34315 1 8L3 8C3 7.44772 3.44772 7 4 7L4 5ZM11.7184 26L16.9412 26L16.9412 24L11.7184 24L11.7184 26Z" fill="#E6E6E6"/>
</svg>
