<svg width="410" height="90" viewBox="0 0 410 90" fill="none" xmlns="http://www.w3.org/2000/svg">
<g clip-path="url(#clip0_1419_4923)">
<path d="M116.3 56.3996C112.3 56.3996 109.1 55.1996 106.8 52.8996C104.5 50.5996 103.4 47.2996 103.4 43.1996C103.4 38.9996 104.5 35.5996 106.6 33.1996C108.7 30.7996 111.6 29.5996 115.3 29.5996C118.7 29.5996 121.4 30.5996 123.4 32.6996C125.4 34.7996 126.4 37.5996 126.4 41.2996V44.2996H109.1C109.2 46.7996 109.9 48.6996 111.1 50.0996C112.3 51.4996 114.2 52.0996 116.5 52.0996C118 52.0996 119.5 51.9996 120.8 51.6996C122.1 51.3996 123.5 50.8996 125.1 50.2996V54.7996C123.8 55.3996 122.4 55.8996 121 56.1996C119.6 56.4996 118 56.3996 116.3 56.3996ZM115.2 33.7996C113.4 33.7996 112 34.3996 111 35.4996C110 36.5996 109.3 38.1996 109.1 40.3996H120.9C120.9 38.2996 120.4 36.5996 119.4 35.4996C118.4 34.3996 117 33.7996 115.2 33.7996Z" fill="#E6E6E6"/>
<path d="M138.1 56H132.6V19.5H138.1V56Z" fill="#E6E6E6"/>
<path d="M162.2 55.9998L161.1 52.3998H160.9C159.7 53.9998 158.4 55.0998 157.1 55.5998C155.8 56.0998 154.2 56.4998 152.2 56.4998C149.7 56.4998 147.7 55.7998 146.2 54.3998C144.7 52.9998 144.1 51.0998 144.1 48.5998C144.1 45.8998 145.1 43.8998 147.1 42.5998C149.1 41.2998 152.1 40.4998 156.2 40.3998L160.7 40.2998V38.8998C160.7 37.1998 160.3 35.9998 159.5 35.1998C158.7 34.3998 157.5 33.9998 155.9 33.9998C154.6 33.9998 153.3 34.1998 152.1 34.5998C150.9 34.9998 149.7 35.4998 148.6 35.9998L146.8 32.0998C148.2 31.3998 149.7 30.7998 151.4 30.3998C153.1 29.9998 154.6 29.7998 156.1 29.7998C159.4 29.7998 161.9 30.4998 163.6 31.9998C165.3 33.4998 166.1 35.6998 166.1 38.7998V55.9998H162.2ZM154 52.1998C156 52.1998 157.6 51.5998 158.8 50.4998C160 49.3998 160.6 47.7998 160.6 45.7998V43.5998L157.3 43.6998C154.7 43.7998 152.8 44.1998 151.6 44.9998C150.4 45.7998 149.8 46.9998 149.8 48.5998C149.8 49.7998 150.1 50.6998 150.8 51.2998C151.5 51.8998 152.6 52.1998 154 52.1998Z" fill="#E6E6E6"/>
<path d="M191.2 48.6004C191.2 51.1004 190.3 53.1004 188.4 54.4004C186.5 55.7004 183.9 56.4004 180.5 56.4004C177 56.4004 174.3 55.9004 172.2 54.8004V50.0004C175.2 51.4004 178.1 52.1004 180.7 52.1004C184.1 52.1004 185.8 51.1004 185.8 49.0004C185.8 48.3004 185.6 47.8004 185.2 47.4004C184.8 47.0004 184.2 46.5004 183.3 46.0004C182.4 45.5004 181.2 45.0004 179.7 44.4004C176.7 43.2004 174.7 42.1004 173.6 40.9004C172.5 39.7004 172 38.2004 172 36.4004C172 34.2004 172.9 32.5004 174.7 31.2004C176.5 29.9004 178.9 29.4004 182 29.4004C185 29.4004 187.9 30.0004 190.6 31.3004L188.8 35.4004C186 34.2004 183.7 33.7004 181.7 33.7004C178.8 33.7004 177.3 34.5004 177.3 36.2004C177.3 37.0004 177.7 37.7004 178.4 38.3004C179.1 38.9004 180.8 39.6004 183.4 40.6004C185.5 41.4004 187.1 42.2004 188.1 42.9004C189.1 43.6004 189.8 44.4004 190.3 45.3004C191 46.3004 191.2 47.3004 191.2 48.6004Z" fill="#E6E6E6"/>
<path d="M206.8 52.0004C208.1 52.0004 209.5 51.8004 210.8 51.4004V55.5004C210.2 55.8004 209.4 56.0004 208.4 56.2004C207.4 56.4004 206.4 56.5004 205.4 56.5004C200.2 56.5004 197.6 53.7004 197.6 48.3004V34.3004H194.1V31.9004L197.9 29.9004L199.8 24.4004H203.2V30.2004H210.6V34.4004H203.2V48.3004C203.2 49.6004 203.5 50.6004 204.2 51.2004C204.9 51.8004 205.8 52.0004 206.8 52.0004Z" fill="#E6E6E6"/>
<path d="M215.7 23.1996C215.7 22.1996 216 21.4996 216.5 20.8996C217 20.2996 217.8 20.0996 218.8 20.0996C219.8 20.0996 220.5 20.3996 221.1 20.8996C221.7 21.3996 221.9 22.1996 221.9 23.1996C221.9 24.0996 221.6 24.8996 221.1 25.3996C220.6 25.8996 219.8 26.1996 218.8 26.1996C217.8 26.1996 217 25.8996 216.5 25.3996C216 24.8996 215.7 24.0996 215.7 23.1996ZM221.6 55.9996H216.1V30.0996H221.6V55.9996Z" fill="#E6E6E6"/>
<path d="M239.9 56.4C236 56.4 233 55.3 231 53C229 50.7 227.9 47.4 227.9 43.1C227.9 38.7 229 35.4 231.1 33C233.2 30.6 236.3 29.5 240.3 29.5C243 29.5 245.5 30 247.7 31L246 35.4C243.7 34.5 241.8 34 240.2 34C235.7 34 233.5 37 233.5 42.9C233.5 45.8 234.1 48 235.2 49.5C236.3 51 238 51.7 240.1 51.7C242.6 51.7 244.9 51.1 247.1 49.9V54.7C246.1 55.3 245.1 55.7 243.9 55.9C242.7 56.1 241.5 56.4 239.9 56.4Z" fill="#E6E6E6"/>
<path d="M270.6 48.6004C270.6 51.1004 269.7 53.1004 267.8 54.4004C265.9 55.7004 263.3 56.4004 259.9 56.4004C256.4 56.4004 253.7 55.9004 251.6 54.8004V50.0004C254.6 51.4004 257.5 52.1004 260.1 52.1004C263.5 52.1004 265.2 51.1004 265.2 49.0004C265.2 48.3004 265 47.8004 264.6 47.4004C264.2 47.0004 263.6 46.5004 262.7 46.0004C261.8 45.5004 260.6 45.0004 259.1 44.4004C256.1 43.2004 254.1 42.1004 253 40.9004C251.9 39.7004 251.4 38.2004 251.4 36.4004C251.4 34.2004 252.3 32.5004 254.1 31.2004C255.9 29.9004 258.3 29.4004 261.4 29.4004C264.4 29.4004 267.3 30.0004 270 31.3004L268.2 35.4004C265.4 34.2004 263.1 33.7004 261.1 33.7004C258.2 33.7004 256.7 34.5004 256.7 36.2004C256.7 37.0004 257.1 37.7004 257.8 38.3004C258.5 38.9004 260.2 39.6004 262.8 40.6004C264.9 41.4004 266.5 42.2004 267.5 42.9004C268.5 43.6004 269.2 44.4004 269.7 45.3004C270.4 46.3004 270.6 47.3004 270.6 48.6004Z" fill="#E6E6E6"/>
<path d="M287.9 56.3996C283.9 56.3996 280.7 55.1996 278.4 52.8996C276.1 50.5996 275 47.2996 275 43.1996C275 38.9996 276.1 35.5996 278.2 33.1996C280.3 30.7996 283.2 29.5996 286.9 29.5996C290.3 29.5996 293 30.5996 295 32.6996C297 34.7996 298 37.5996 298 41.2996V44.2996H280.7C280.8 46.7996 281.5 48.6996 282.7 50.0996C283.9 51.4996 285.8 52.0996 288.1 52.0996C289.6 52.0996 291.1 51.9996 292.4 51.6996C293.7 51.3996 295.1 50.8996 296.7 50.2996V54.7996C295.4 55.3996 294 55.8996 292.6 56.1996C291.2 56.4996 289.7 56.3996 287.9 56.3996ZM286.9 33.7996C285.1 33.7996 283.7 34.3996 282.7 35.4996C281.7 36.5996 281 38.1996 280.8 40.3996H292.6C292.6 38.2996 292.1 36.5996 291.1 35.4996C290.1 34.3996 288.6 33.7996 286.9 33.7996Z" fill="#E6E6E6"/>
<path d="M320.4 55.9998L319.3 52.3998H319.1C317.9 53.9998 316.6 55.0998 315.3 55.5998C314 56.0998 312.4 56.4998 310.4 56.4998C307.9 56.4998 305.9 55.7998 304.4 54.3998C302.9 52.9998 302.3 51.0998 302.3 48.5998C302.3 45.8998 303.3 43.8998 305.3 42.5998C307.3 41.2998 310.3 40.4998 314.4 40.3998L318.9 40.2998V38.8998C318.9 37.1998 318.5 35.9998 317.7 35.1998C316.9 34.3998 315.7 33.9998 314.1 33.9998C312.8 33.9998 311.5 34.1998 310.3 34.5998C309.1 34.9998 307.9 35.4998 306.8 35.9998L305 32.0998C306.4 31.3998 307.9 30.7998 309.6 30.3998C311.3 29.9998 312.8 29.7998 314.3 29.7998C317.6 29.7998 320.1 30.4998 321.8 31.9998C323.5 33.4998 324.3 35.6998 324.3 38.7998V55.9998H320.4ZM312.2 52.1998C314.2 52.1998 315.8 51.5998 317 50.4998C318.2 49.3998 318.8 47.7998 318.8 45.7998V43.5998L315.5 43.6998C312.9 43.7998 311 44.1998 309.8 44.9998C308.6 45.7998 308 46.9998 308 48.5998C308 49.7998 308.3 50.6998 309 51.2998C309.7 51.8998 310.9 52.1998 312.2 52.1998Z" fill="#E6E6E6"/>
<path d="M345.2 29.5996C346.3 29.5996 347.2 29.6996 347.9 29.7996L347.4 34.8996C346.6 34.6996 345.8 34.5996 345 34.5996C342.8 34.5996 341 35.2996 339.6 36.7996C338.2 38.2996 337.5 40.0996 337.5 42.3996V55.9996H332V30.0996H336.3L337 34.6996H337.3C338.2 33.1996 339.3 31.8996 340.7 30.9996C342.1 30.0996 343.6 29.5996 345.2 29.5996Z" fill="#E6E6E6"/>
<path d="M363.2 56.4C359.3 56.4 356.3 55.3 354.3 53C352.3 50.7 351.2 47.4 351.2 43.1C351.2 38.7 352.3 35.4 354.4 33C356.5 30.6 359.6 29.5 363.6 29.5C366.3 29.5 368.8 30 371 31L369.3 35.4C367 34.5 365.1 34 363.5 34C359 34 356.8 37 356.8 42.9C356.8 45.8 357.4 48 358.5 49.5C359.6 51 361.3 51.7 363.4 51.7C365.9 51.7 368.2 51.1 370.4 49.9V54.7C369.4 55.3 368.4 55.7 367.2 55.9C366 56.1 364.8 56.4 363.2 56.4Z" fill="#E6E6E6"/>
<path d="M399.3 56H393.8V40C393.8 38 393.4 36.5 392.6 35.5C391.8 34.5 390.5 34 388.8 34C386.5 34 384.8 34.7 383.7 36.1C382.6 37.5 382.1 39.8 382.1 43V56H376.6V19.5H382.1V28.8C382.1 30.3 382 31.9 381.8 33.6H382.2C383 32.4 384 31.4 385.3 30.7C386.6 30 388.2 29.7 390 29.7C396.3 29.7 399.4 32.9 399.4 39.2V56H399.3Z" fill="#E6E6E6"/>
<path d="M64.8 32.5H43.9C44 33 44.2 33.5 44.3 33.9C45 36.3 45.4 38.8 45.6 41.4C45.7 42.4 45.7 43.5 45.7 44.5C45.7 45.5 45.7 46.6 45.6 47.6C45.4 50.2 45 52.7 44.3 55.1C44.2 55.6 44 56.1 43.9 56.5H64.8C71.4 56.5 76.7 51.1 76.7 44.5C76.7 37.9 71.4 32.5 64.8 32.5Z" fill="#00A9E5"/>
<path d="M45.6 47.6C45.7 46.6 45.7 45.5 45.7 44.5C45.7 43.5 45.7 42.4 45.6 41.4C45.4 38.8 45 36.3 44.3 33.9C44.2 33.4 44 32.9 43.9 32.5H11.6C10.4 36.3 9.79999 40.3 9.79999 44.5C9.79999 48.7 10.4 52.7 11.6 56.5H43.9C44 56 44.2 55.5 44.3 55.1C45 52.7 45.4 50.2 45.6 47.6Z" fill="#353535"/>
<path d="M68.4 60.5H42.4C41.6 62.3 40.7 64 39.7 65.6C38.2 68.1 36.4 70.3 34.4 72.4C33.7 73.1 33 73.7 32.3 74.4C30.9 75.7 29.3 76.8 27.7 77.9C34 82.1 41.6 84.5 49.7 84.5C63.6 84.5 75.8 77.4 83 66.7C79.3 62.9 74.1 60.5 68.4 60.5Z" fill="#00BFB3"/>
<path d="M39.7 65.6C40.7 64 41.6 62.3 42.4 60.5H13.1C16.2 67.6 21.3 73.7 27.8 77.9C29.4 76.8 30.9 75.7 32.4 74.4C33.1 73.8 33.8 73.1 34.5 72.4C36.4 70.4 38.2 68.1 39.7 65.6Z" fill="#019B8F"/>
<path d="M34.4 16.5996C33.7 15.8996 33 15.2996 32.3 14.5996C30.9 13.2996 29.3 12.1996 27.7 11.0996C21.3 15.2996 16.2 21.3996 13 28.4996H42.3C41.5 26.6996 40.6 24.9996 39.6 23.3996C38.2 20.8996 36.4 18.5996 34.4 16.5996Z" fill="#F9B110"/>
<path d="M49.7 4.5C41.6 4.5 34 6.9 27.7 11.1C29.3 12.2 30.8 13.3 32.3 14.6C33 15.2 33.7 15.9 34.4 16.6C36.4 18.7 38.2 20.9 39.7 23.4C40.7 25 41.6 26.7 42.4 28.5H68.4C74.1 28.5 79.3 26.1 83 22.3C75.8 11.6 63.6 4.5 49.7 4.5Z" fill="#FED10A"/>
</g>
<defs>
<clipPath id="clip0_1419_4923">
<rect width="410" height="90" fill="white"/>
</clipPath>
</defs>
</svg>
