<svg width="176" height="90" viewBox="0 0 176 90" fill="none" xmlns="http://www.w3.org/2000/svg">
<g clip-path="url(#clip0_2265_699)">
<path d="M15.8493 27.7873V36.3511C15.8493 36.5686 15.9716 36.7045 16.2163 36.7589C17.1678 36.8948 18.065 36.9628 18.9078 36.9628C21.1643 36.9628 22.809 36.555 23.8421 35.7394C24.9024 34.8966 25.4326 33.6188 25.4326 31.9061C25.4326 30.3836 24.8209 29.269 23.5975 28.5621C22.4012 27.8281 20.403 27.461 17.6028 27.461H16.1755C15.958 27.461 15.8493 27.5698 15.8493 27.7873ZM15.8493 15.8795V22.8529C15.8493 23.0976 15.958 23.2199 16.1755 23.2199H17.3581C19.8865 23.2199 21.708 22.8801 22.8226 22.2004C23.9645 21.4936 24.5354 20.4605 24.5354 19.1011C24.5354 17.7962 24.0732 16.8311 23.1489 16.2058C22.2245 15.5805 20.7157 15.2678 18.6223 15.2678C17.6708 15.2678 16.8552 15.3222 16.1755 15.4309C15.958 15.4853 15.8493 15.6348 15.8493 15.8795ZM12.5053 41.0816C11.8528 41.0272 11.3091 40.7553 10.8741 40.266C10.4391 39.7494 10.2216 39.1513 10.2216 38.4716V13.759C10.2216 13.0793 10.4391 12.4948 10.8741 12.0054C11.3091 11.4889 11.8664 11.2034 12.5461 11.149C14.5579 10.9315 16.5017 10.8228 18.3776 10.8228C25.9899 10.8228 29.796 13.3104 29.796 18.2855C29.796 19.9439 29.2387 21.3848 28.124 22.6082C27.0094 23.8316 25.5413 24.62 23.7198 24.9735C23.6926 24.9735 23.679 24.9871 23.679 25.0142C23.679 25.0686 23.6926 25.0958 23.7198 25.0958C25.9491 25.422 27.6891 26.2512 28.9396 27.5834C30.2174 28.8883 30.8563 30.5059 30.8563 32.4362C30.8563 35.4267 29.8776 37.6696 27.9201 39.1649C25.9627 40.6602 22.9178 41.4078 18.7854 41.4078C16.7192 41.4078 14.6259 41.2991 12.5053 41.0816ZM42.4843 23.1791C41.0978 23.1791 40.0239 23.5733 39.2627 24.3618C38.5287 25.123 38.0665 26.36 37.8762 28.0727C37.8762 28.2902 37.9849 28.399 38.2024 28.399H46.1953C46.4128 28.399 46.5216 28.2902 46.5216 28.0727C46.4128 24.8103 45.0671 23.1791 42.4843 23.1791ZM43.5038 41.4078C39.9424 41.4078 37.1965 40.4835 35.2663 38.6348C33.3632 36.7589 32.4117 34.013 32.4117 30.3972C32.4117 26.8086 33.2681 24.0763 34.9808 22.2004C36.6936 20.3245 39.1676 19.3866 42.4028 19.3866C48.4382 19.3866 51.5375 22.8121 51.7006 29.6632C51.7278 30.3156 51.4967 30.8594 51.0074 31.2944C50.518 31.7293 49.9471 31.9468 49.2946 31.9468H38.1617C37.917 31.9468 37.8218 32.0692 37.8762 32.3139C38.0665 34.1354 38.6646 35.4675 39.6705 36.3103C40.7036 37.1259 42.1989 37.5337 44.1563 37.5337C45.3797 37.5337 46.739 37.3298 48.2343 36.922C48.7237 36.7861 49.1723 36.8676 49.5801 37.1667C50.015 37.4657 50.2325 37.8735 50.2325 38.3901C50.2325 39.0154 50.0422 39.5727 49.6616 40.0621C49.3082 40.5242 48.8324 40.8097 48.2343 40.9184C46.7119 41.2447 45.135 41.4078 43.5038 41.4078ZM62.1769 32.4362C59.3223 31.8109 57.2833 30.9545 56.0599 29.8671C54.8637 28.7796 54.2656 27.3659 54.2656 25.6259C54.2656 23.6685 54.9861 22.146 56.427 21.0586C57.895 19.9439 60.0564 19.3866 62.911 19.3866C64.7053 19.3866 66.486 19.5497 68.2532 19.876C68.8513 19.9847 69.327 20.2838 69.6805 20.7731C70.0611 21.2353 70.2514 21.779 70.2514 22.4043C70.2514 22.9209 70.0475 23.3423 69.6397 23.6685C69.2319 23.9676 68.7697 24.0491 68.2532 23.9132C66.7307 23.5326 65.1267 23.3423 63.4411 23.3423C60.9943 23.3423 59.7709 24.0219 59.7709 25.3813C59.7709 26.0337 60.002 26.5775 60.4642 27.0125C60.9263 27.4474 61.7148 27.7873 62.8294 28.032C65.9559 28.6573 68.09 29.5 69.2319 30.5603C70.4009 31.6206 70.9854 33.1702 70.9854 35.2092C70.9854 37.1667 70.2514 38.6891 68.7833 39.7766C67.3152 40.8641 65.1811 41.4078 62.3808 41.4078C60.5593 41.4078 58.697 41.1903 56.794 40.7553C56.1959 40.6194 55.7065 40.3067 55.3259 39.8174C54.9453 39.3008 54.755 38.7163 54.755 38.0638C54.755 37.5473 54.9589 37.1531 55.3667 36.8812C55.8017 36.6094 56.2638 36.5414 56.7532 36.6773C58.5203 37.1667 60.1923 37.4114 61.7691 37.4114C64.2431 37.4114 65.4801 36.6773 65.4801 35.2092C65.4801 34.5024 65.2354 33.9451 64.7461 33.5373C64.2839 33.1295 63.4275 32.7624 62.1769 32.4362ZM74.9022 24.5657C74.3585 24.5657 73.8963 24.3754 73.5157 23.9947C73.1351 23.5869 72.9448 23.1112 72.9448 22.5674C72.9448 22.0237 73.1351 21.5615 73.5157 21.1809C73.8963 20.8003 74.3585 20.61 74.9022 20.61H76.8596C77.1043 20.61 77.2267 20.4877 77.2267 20.243V15.1863C77.2267 14.561 77.4442 14.0172 77.8791 13.5551C78.3413 13.0929 78.8851 12.8618 79.5103 12.8618H80.3259C80.9512 12.8618 81.495 13.0929 81.9571 13.5551C82.4193 14.0172 82.6504 14.561 82.6504 15.1863V20.243C82.6504 20.4877 82.7727 20.61 83.0174 20.61H87.6663C88.2101 20.61 88.6723 20.8003 89.0529 21.1809C89.4607 21.5615 89.6646 22.0237 89.6646 22.5674C89.6646 23.1112 89.4607 23.5869 89.0529 23.9947C88.6723 24.3754 88.2101 24.5657 87.6663 24.5657H83.0174C82.7727 24.5657 82.6504 24.6744 82.6504 24.8919V33.1295C82.6504 34.8966 82.8407 36.0384 83.2213 36.555C83.6019 37.0715 84.3904 37.3298 85.5866 37.3298C86.239 37.3298 86.7284 37.3026 87.0546 37.2482C87.5984 37.1939 88.0741 37.3162 88.4819 37.6153C88.8897 37.9143 89.0936 38.3221 89.0936 38.8387C89.0936 39.4368 88.8897 39.9805 88.4819 40.4699C88.1013 40.932 87.6256 41.1903 87.0546 41.2447C85.8584 41.3534 84.9613 41.4078 84.3632 41.4078C81.7261 41.4078 79.8774 40.8505 78.8171 39.7358C77.7568 38.594 77.2267 36.5686 77.2267 33.6596V24.8919C77.2267 24.6744 77.1043 24.5657 76.8596 24.5657H74.9022ZM15.8493 52.8795V62.7075C15.8493 62.8978 15.958 63.0201 16.1755 63.0745C17.2086 63.2105 18.2145 63.2784 19.1932 63.2784C21.3953 63.2784 23.0673 62.8027 24.2092 61.8511C25.3782 60.8724 25.9627 59.4859 25.9627 57.6916C25.9627 54.0757 23.7062 52.2678 19.1932 52.2678C18.2145 52.2678 17.2086 52.3358 16.1755 52.4717C15.958 52.5261 15.8493 52.662 15.8493 52.8795ZM12.5053 78C11.88 78 11.3363 77.7689 10.8741 77.3067C10.4391 76.8446 10.2216 76.3008 10.2216 75.6755V50.759C10.2216 50.1065 10.4391 49.522 10.8741 49.0054C11.3091 48.4889 11.8528 48.2034 12.5053 48.149C14.8162 47.9315 17.0455 47.8228 19.1932 47.8228C23.2712 47.8228 26.3297 48.6384 28.3687 50.2696C30.4077 51.8736 31.4272 54.2117 31.4272 57.2838C31.4272 60.6821 30.4349 63.2512 28.4503 64.9912C26.4928 66.7311 23.5839 67.6011 19.7234 67.6011C18.8262 67.6011 17.6436 67.5467 16.1755 67.438C15.958 67.438 15.8493 67.5467 15.8493 67.7642V75.6755C15.8493 76.3008 15.6182 76.8446 15.156 77.3067C14.6938 77.7689 14.1501 78 13.5248 78H12.5053ZM36.1236 78C35.4983 78 34.9546 77.7689 34.4924 77.3067C34.0302 76.8446 33.7991 76.3008 33.7991 75.6755V59.1189C33.7991 58.4936 34.0302 57.9498 34.4924 57.4877C34.9546 57.0255 35.4983 56.7944 36.1236 56.7944H36.9392C37.5645 56.7944 38.1082 57.0255 38.5704 57.4877C39.0326 57.9498 39.2637 58.4936 39.2637 59.1189V60.8316C39.2637 60.8588 39.2773 60.8724 39.3044 60.8724C39.3588 60.8724 39.386 60.8588 39.386 60.8316C40.1744 59.7442 41.2075 58.8606 42.4853 58.1809C43.7631 57.4741 45.1632 57.0391 46.6856 56.876C47.2565 56.8216 47.7459 57.0119 48.1537 57.4469C48.5615 57.8547 48.7654 58.344 48.7654 58.915C48.7654 59.4859 48.5615 59.9752 48.1537 60.383C47.7459 60.7908 47.2565 61.0219 46.6856 61.0763C41.8736 61.4569 39.4676 63.9037 39.4676 68.4167V75.6755C39.4676 76.3008 39.2365 76.8446 38.7743 77.3067C38.3121 77.7689 37.7684 78 37.1431 78H36.1236ZM61.1249 67.805C57.2372 67.805 55.2934 69.0012 55.2934 71.3936C55.2934 72.2636 55.5381 72.9705 56.0274 73.5142C56.544 74.0579 57.1965 74.3298 57.9849 74.3298C59.5345 74.3298 60.7851 73.854 61.7366 72.9025C62.6882 71.9238 63.1639 70.5916 63.1639 68.9061V68.172C63.1639 67.9273 63.0416 67.805 62.7969 67.805H61.1249ZM56.5168 78.4078C54.6681 78.4078 53.1321 77.8097 51.9087 76.6135C50.7124 75.3901 50.1143 73.8133 50.1143 71.883C50.1143 69.5178 51.0115 67.6827 52.8058 66.3777C54.6273 65.0727 57.4004 64.4203 61.1249 64.4203H62.7969C63.0416 64.4203 63.1639 64.2979 63.1639 64.0532V63.727C63.1639 62.4764 62.8649 61.6064 62.2668 61.1171C61.6687 60.6005 60.6084 60.3423 59.0859 60.3423C57.5091 60.3423 55.5789 60.6277 53.2952 61.1986C52.8058 61.3346 52.3572 61.253 51.9494 60.954C51.5416 60.6277 51.3377 60.2063 51.3377 59.6898C51.3377 59.0645 51.528 58.5072 51.9087 58.0178C52.2893 57.5013 52.7786 57.1886 53.3767 57.0799C55.4429 56.6177 57.3868 56.3866 59.2083 56.3866C62.6882 56.3866 65.1214 57.0119 66.5079 58.2625C67.8944 59.5131 68.5877 61.7016 68.5877 64.8281V75.6755C68.5877 76.3008 68.3566 76.8446 67.8944 77.3067C67.4594 77.7689 66.9293 78 66.304 78H65.8554C65.2029 78 64.6456 77.7825 64.1834 77.3475C63.7213 76.8853 63.4766 76.328 63.4494 75.6755V75.1046C63.4494 75.0774 63.4358 75.0638 63.4086 75.0638C63.3542 75.0638 63.3271 75.0774 63.3271 75.1046C61.6687 77.3067 59.3986 78.4078 56.5168 78.4078ZM81.8635 78.4078C78.4923 78.4078 75.896 77.4835 74.0745 75.6348C72.253 73.7589 71.3422 71.013 71.3422 67.3972C71.3422 63.8357 72.2122 61.1171 73.9522 59.2412C75.7193 57.3381 78.2205 56.3866 81.4557 56.3866C82.8966 56.3866 84.2831 56.4818 85.6152 56.6721C86.2405 56.7536 86.7571 57.0391 87.1649 57.5284C87.5727 58.0178 87.7766 58.5887 87.7766 59.2412C87.7766 59.7849 87.5591 60.2199 87.1241 60.5462C86.7163 60.8724 86.2405 60.9811 85.6968 60.8724C84.6365 60.6549 83.4539 60.5462 82.1489 60.5462C80.4362 60.5462 79.1584 61.0899 78.3156 62.1774C77.4728 63.2648 77.0514 65.0048 77.0514 67.3972C77.0514 69.844 77.5 71.5975 78.3972 72.6578C79.2943 73.7181 80.6809 74.2482 82.5567 74.2482C83.8889 74.2482 85.0443 74.1259 86.023 73.8812C86.5396 73.7453 87.0018 73.8404 87.4096 74.1667C87.8445 74.4929 88.062 74.9143 88.062 75.4309C88.062 76.0833 87.8581 76.6543 87.4503 77.1436C87.0697 77.633 86.5668 77.932 85.9415 78.0408C84.555 78.2855 83.1956 78.4078 81.8635 78.4078ZM93.1927 61.5657C92.6489 61.5657 92.1868 61.3754 91.8062 60.9947C91.4255 60.5869 91.2352 60.1112 91.2352 59.5674C91.2352 59.0237 91.4255 58.5615 91.8062 58.1809C92.1868 57.8003 92.6489 57.61 93.1927 57.61H95.1501C95.3948 57.61 95.5171 57.4877 95.5171 57.243V52.1863C95.5171 51.561 95.7346 51.0172 96.1696 50.5551C96.6318 50.0929 97.1755 49.8618 97.8008 49.8618H98.6164C99.2417 49.8618 99.7854 50.0929 100.248 50.5551C100.71 51.0172 100.941 51.561 100.941 52.1863V57.243C100.941 57.4877 101.063 57.61 101.308 57.61H105.957C106.501 57.61 106.963 57.8003 107.343 58.1809C107.751 58.5615 107.955 59.0237 107.955 59.5674C107.955 60.1112 107.751 60.5869 107.343 60.9947C106.963 61.3754 106.501 61.5657 105.957 61.5657H101.308C101.063 61.5657 100.941 61.6744 100.941 61.8919V70.1295C100.941 71.8966 101.131 73.0384 101.512 73.555C101.892 74.0715 102.681 74.3298 103.877 74.3298C104.53 74.3298 105.019 74.3026 105.345 74.2482C105.889 74.1939 106.365 74.3162 106.772 74.6153C107.18 74.9143 107.384 75.3221 107.384 75.8387C107.384 76.4368 107.18 76.9805 106.772 77.4699C106.392 77.932 105.916 78.1903 105.345 78.2447C104.149 78.3534 103.252 78.4078 102.654 78.4078C100.017 78.4078 98.1678 77.8505 97.1076 76.7358C96.0473 75.594 95.5171 73.5686 95.5171 70.6596V61.8919C95.5171 61.6744 95.3948 61.5657 95.1501 61.5657H93.1927ZM115.925 78C115.3 78 114.756 77.7689 114.294 77.3067C113.832 76.8446 113.601 76.3008 113.601 75.6755V59.1189C113.601 58.4936 113.832 57.9498 114.294 57.4877C114.756 57.0255 115.3 56.7944 115.925 56.7944H116.985C117.611 56.7944 118.154 57.0255 118.616 57.4877C119.079 57.9498 119.31 58.4936 119.31 59.1189V75.6755C119.31 76.3008 119.079 76.8446 118.616 77.3067C118.154 77.7689 117.611 78 116.985 78H115.925ZM115.925 52.3086C115.3 52.3086 114.756 52.0775 114.294 51.6153C113.832 51.1532 113.601 50.6094 113.601 49.9841V49.7395C113.601 49.1142 113.832 48.5704 114.294 48.1083C114.756 47.6461 115.3 47.415 115.925 47.415H116.985C117.611 47.415 118.154 47.6461 118.616 48.1083C119.079 48.5704 119.31 49.1142 119.31 49.7395V49.9841C119.31 50.6094 119.079 51.1532 118.616 51.6153C118.154 52.0775 117.611 52.3086 116.985 52.3086H115.925ZM134.027 78.4078C130.656 78.4078 128.059 77.4835 126.238 75.6348C124.416 73.7589 123.506 71.013 123.506 67.3972C123.506 63.8357 124.376 61.1171 126.116 59.2412C127.883 57.3381 130.384 56.3866 133.619 56.3866C135.06 56.3866 136.446 56.4818 137.779 56.6721C138.404 56.7536 138.92 57.0391 139.328 57.5284C139.736 58.0178 139.94 58.5887 139.94 59.2412C139.94 59.7849 139.722 60.2199 139.287 60.5462C138.88 60.8724 138.404 60.9811 137.86 60.8724C136.8 60.6549 135.617 60.5462 134.312 60.5462C132.6 60.5462 131.322 61.0899 130.479 62.1774C129.636 63.2648 129.215 65.0048 129.215 67.3972C129.215 69.844 129.663 71.5975 130.561 72.6578C131.458 73.7181 132.844 74.2482 134.72 74.2482C136.052 74.2482 137.208 74.1259 138.186 73.8812C138.703 73.7453 139.165 73.8404 139.573 74.1667C140.008 74.4929 140.225 74.9143 140.225 75.4309C140.225 76.0833 140.021 76.6543 139.614 77.1436C139.233 77.633 138.73 77.932 138.105 78.0408C136.718 78.2855 135.359 78.4078 134.027 78.4078ZM153.063 60.1791C151.677 60.1791 150.603 60.5733 149.842 61.3618C149.108 62.123 148.646 63.36 148.455 65.0727C148.455 65.2902 148.564 65.399 148.782 65.399H156.774C156.992 65.399 157.101 65.2902 157.101 65.0727C156.992 61.8103 155.646 60.1791 153.063 60.1791ZM154.083 78.4078C150.521 78.4078 147.776 77.4835 145.845 75.6348C143.942 73.7589 142.991 71.013 142.991 67.3972C142.991 63.8086 143.847 61.0763 145.56 59.2004C147.273 57.3245 149.747 56.3866 152.982 56.3866C159.017 56.3866 162.117 59.8121 162.28 66.6632C162.307 67.3156 162.076 67.8594 161.586 68.2944C161.097 68.7293 160.526 68.9468 159.874 68.9468H148.741C148.496 68.9468 148.401 69.0692 148.455 69.3139C148.646 71.1354 149.244 72.4675 150.25 73.3103C151.283 74.1259 152.778 74.5337 154.735 74.5337C155.959 74.5337 157.318 74.3298 158.813 73.922C159.303 73.7861 159.751 73.8676 160.159 74.1667C160.594 74.4657 160.812 74.8735 160.812 75.3901C160.812 76.0154 160.621 76.5727 160.241 77.0621C159.887 77.5242 159.412 77.8097 158.813 77.9184C157.291 78.2447 155.714 78.4078 154.083 78.4078Z" fill="#00AB00"/>
</g>
<defs>
<clipPath id="clip0_2265_699">
<rect width="176" height="90" fill="white"/>
</clipPath>
</defs>
</svg>
