<svg width="192" height="90" viewBox="0 0 192 90" fill="none" xmlns="http://www.w3.org/2000/svg">
<g clip-path="url(#clip0_2265_699)">
<path d="M179.699 28.0595L160.773 39.4065L160.773 16.7124L179.699 28.0595Z" fill="#00DBFF" fill-opacity="0.7" stroke="#E6E6E6" stroke-width="4.85275" stroke-linejoin="round"/>
<path d="M8.4491 41.252V10.1192H26.2392C27.873 10.1192 29.3404 10.4369 30.6414 11.0723C31.9726 11.7076 33.0164 12.6002 33.7728 13.7499C34.5292 14.8996 34.9074 16.2459 34.9074 17.789C34.9074 19.0294 34.6805 20.1337 34.2266 21.1019C33.7728 22.0701 33.1526 22.8719 32.3659 23.5072C31.6095 24.1426 30.7473 24.6115 29.7791 24.9141V25.0956C30.9288 25.3377 31.9424 25.7915 32.8198 26.4571C33.7274 27.1227 34.4384 27.985 34.9528 29.0439C35.4973 30.0726 35.7696 31.298 35.7696 32.72C35.7696 34.5958 35.3309 36.1691 34.4535 37.4398C33.6064 38.7105 32.4718 39.6635 31.0498 40.2989C29.6278 40.9343 28.0394 41.252 26.2846 41.252H8.4491ZM15.2112 35.7152H24.9685C26.0879 35.7152 26.9956 35.3976 27.6915 34.7622C28.4176 34.1268 28.7807 33.1435 28.7807 31.8123C28.7807 31.0257 28.6294 30.3449 28.3268 29.7701C28.0243 29.1952 27.5705 28.7565 26.9654 28.454C26.3602 28.1212 25.5887 27.9547 24.6508 27.9547H15.2112V35.7152ZM15.2112 22.6903H24.197C25.0139 22.6903 25.6946 22.539 26.2392 22.2365C26.8141 21.9037 27.2377 21.4801 27.5099 20.9658C27.8125 20.4212 27.9638 19.8009 27.9638 19.1051C27.9638 17.9251 27.631 17.0326 26.9654 16.4275C26.33 15.8224 25.4828 15.5198 24.4239 15.5198H15.2112V22.6903ZM51.503 41.7965C48.8708 41.7965 46.6621 41.3578 44.8771 40.4804C43.092 39.5728 41.7457 38.1962 40.838 36.3506C39.9303 34.505 39.4765 32.1602 39.4765 29.3162C39.4765 26.442 39.9303 24.0972 40.838 22.2819C41.7457 20.4363 43.0769 19.0748 44.8317 18.1974C46.6168 17.2897 48.7951 16.8359 51.3668 16.8359C53.7873 16.8359 55.8295 17.2746 57.4935 18.152C59.1576 18.9992 60.4132 20.3304 61.2603 22.1457C62.1075 23.9308 62.5311 26.2453 62.5311 29.0893V30.7231H45.8755C45.936 32.1149 46.1478 33.2948 46.5109 34.263C46.9042 35.2311 47.4942 35.9573 48.2808 36.4414C49.0977 36.8952 50.1718 37.1221 51.503 37.1221C52.2291 37.1221 52.8796 37.0313 53.4545 36.8498C54.0596 36.6683 54.5739 36.396 54.9975 36.0329C55.4211 35.6698 55.7539 35.216 55.9959 34.6714C56.2379 34.1268 56.359 33.5066 56.359 32.8107H62.5311C62.5311 34.3235 62.2588 35.6396 61.7142 36.759C61.1696 37.8785 60.4132 38.8164 59.445 39.5728C58.4768 40.2989 57.312 40.8586 55.9505 41.252C54.6193 41.615 53.1368 41.7965 51.503 41.7965ZM45.9663 26.7294H56.0413C56.0413 25.8217 55.9203 25.0351 55.6782 24.3695C55.4664 23.7039 55.1639 23.1593 54.7706 22.7357C54.3772 22.3121 53.8932 22.0096 53.3183 21.828C52.7737 21.6163 52.1535 21.5104 51.4576 21.5104C50.3079 21.5104 49.3397 21.707 48.5531 22.1003C47.7967 22.4634 47.2067 23.0383 46.7832 23.8249C46.3898 24.5813 46.1175 25.5494 45.9663 26.7294ZM76.826 41.7965C75.1619 41.7965 73.6643 41.615 72.3331 41.252C71.0018 40.8889 69.8673 40.3897 68.9293 39.7543C67.9914 39.0887 67.2653 38.3021 66.751 37.3944C66.2669 36.4867 66.0248 35.4581 66.0248 34.3084C66.0248 34.1873 66.0248 34.0663 66.0248 33.9453C66.0248 33.8243 66.04 33.7335 66.0702 33.673H72.1515C72.1515 33.7335 72.1515 33.794 72.1515 33.8545C72.1515 33.915 72.1515 33.9756 72.1515 34.0361C72.1818 34.7924 72.4238 35.4127 72.8777 35.8968C73.3315 36.3506 73.9215 36.6834 74.6476 36.8952C75.404 37.107 76.1906 37.2129 77.0075 37.2129C77.7336 37.2129 78.4295 37.1524 79.0951 37.0313C79.791 36.8801 80.3658 36.6229 80.8197 36.2598C81.3038 35.8968 81.5458 35.4278 81.5458 34.853C81.5458 34.1268 81.2432 33.5671 80.6381 33.1738C80.0633 32.7805 79.2918 32.4628 78.3236 32.2207C77.3857 31.9787 76.357 31.7064 75.2376 31.4039C74.2089 31.1618 73.1802 30.8895 72.1515 30.587C71.1228 30.2541 70.1849 29.8306 69.3378 29.3162C68.5209 28.8019 67.8553 28.1363 67.3409 27.3194C66.8266 26.4722 66.5694 25.4133 66.5694 24.1426C66.5694 22.9021 66.8417 21.828 67.3863 20.9204C67.9309 19.9825 68.6722 19.211 69.6101 18.6059C70.5783 18.0007 71.6977 17.562 72.9684 17.2898C74.2694 16.9872 75.6611 16.8359 77.1437 16.8359C78.5354 16.8359 79.8364 16.9872 81.0466 17.2898C82.2568 17.562 83.3157 17.9856 84.2234 18.5605C85.1311 19.1051 85.8421 19.8009 86.3564 20.6481C86.8707 21.465 87.1279 22.3878 87.1279 23.4165C87.1279 23.6282 87.1279 23.8249 87.1279 24.0064C87.1279 24.188 87.1128 24.309 87.0825 24.3695H81.0466V24.0064C81.0466 23.4618 80.8802 23.008 80.5474 22.6449C80.2146 22.2516 79.7305 21.9491 79.0951 21.7373C78.49 21.5255 77.7488 21.4196 76.8714 21.4196C76.2663 21.4196 75.7065 21.465 75.1922 21.5557C74.7081 21.6465 74.2845 21.7827 73.9215 21.9642C73.5584 22.1457 73.271 22.3726 73.0592 22.6449C72.8777 22.887 72.7869 23.1895 72.7869 23.5526C72.7869 24.0669 72.9987 24.4905 73.4223 24.8233C73.8761 25.1259 74.4661 25.383 75.1922 25.5948C75.9183 25.8066 76.7201 26.0335 77.5975 26.2756C78.6867 26.5781 79.8212 26.8807 81.0012 27.1832C82.2114 27.4555 83.3309 27.8337 84.3595 28.3178C85.3882 28.8019 86.2202 29.4978 86.8556 30.4054C87.491 31.2828 87.8087 32.4779 87.8087 33.9907C87.8087 35.4429 87.5212 36.6683 86.9464 37.6667C86.4018 38.6651 85.6303 39.4669 84.6318 40.072C83.6334 40.6771 82.4686 41.1158 81.1374 41.3881C79.8061 41.6604 78.369 41.7965 76.826 41.7965ZM99.5022 41.7965C97.9894 41.7965 96.7641 41.5243 95.8262 40.9797C94.8883 40.4351 94.2075 39.7089 93.784 38.8013C93.3604 37.8634 93.1486 36.8347 93.1486 35.7152V22.2365H90.1987V17.3805H93.3755L94.5555 10.5731H99.4568V17.3805H103.814V22.2365H99.4568V34.6714C99.4568 35.3976 99.6232 35.9573 99.956 36.3506C100.289 36.7137 100.833 36.8952 101.59 36.8952H103.814V41.0704C103.451 41.1914 103.027 41.2973 102.543 41.3881C102.059 41.5091 101.544 41.5999 101 41.6604C100.455 41.7512 99.956 41.7965 99.5022 41.7965ZM8.4491 81.252V50.1192H24.6508C26.8897 50.1192 28.7504 50.5428 30.2329 51.39C31.7457 52.2069 32.8803 53.3717 33.6366 54.8845C34.4233 56.367 34.8166 58.1369 34.8166 60.1943C34.8166 62.2516 34.4082 64.0518 33.5913 65.5948C32.8046 67.1076 31.6398 68.2876 30.0968 69.1347C28.5538 69.9819 26.6628 70.4054 24.4239 70.4054H15.2112V81.252H8.4491ZM15.2112 64.8687H23.5162C24.9382 64.8687 26.0274 64.4603 26.7838 63.6434C27.5705 62.8265 27.9638 61.6919 27.9638 60.2396C27.9638 59.2412 27.7974 58.4092 27.4646 57.7436C27.1318 57.078 26.6325 56.5636 25.9669 56.2006C25.3316 55.8375 24.5147 55.656 23.5162 55.656H15.2112V64.8687ZM38.7951 81.252V57.3805H44.0141L44.5133 61.1019H44.831C45.1335 60.3153 45.5269 59.6043 46.0109 58.9689C46.495 58.3033 47.1001 57.7738 47.8263 57.3805C48.5524 56.9872 49.3995 56.7905 50.3677 56.7905C50.8821 56.7905 51.351 56.851 51.7746 56.9721C52.1982 57.0628 52.5158 57.1536 52.7276 57.2444V62.9626H50.7762C49.8382 62.9626 49.0062 63.0988 48.2801 63.3711C47.5842 63.6131 46.9942 64.0064 46.5102 64.551C46.0261 65.0956 45.663 65.7612 45.421 66.5479C45.2092 67.3345 45.1033 68.2573 45.1033 69.3162V81.252H38.7951ZM61.9003 81.7965C61.1137 81.7965 60.2665 81.7058 59.3589 81.5243C58.4815 81.3427 57.6494 81.025 56.8628 80.5712C56.0762 80.0871 55.4257 79.4064 54.9113 78.529C54.4272 77.6213 54.1852 76.4716 54.1852 75.0799C54.1852 73.4158 54.5483 72.0392 55.2744 70.95C56.0005 69.8608 57.0292 69.0137 58.3604 68.4086C59.7219 67.7732 61.3406 67.3345 63.2164 67.0925C65.0922 66.8504 67.1647 66.7294 69.4339 66.7294V64.9595C69.4339 64.2636 69.3129 63.6585 69.0708 63.1442C68.859 62.6298 68.4657 62.2214 67.8909 61.9188C67.3463 61.6163 66.5747 61.465 65.5763 61.465C64.5779 61.465 63.761 61.586 63.1256 61.828C62.5205 62.0701 62.0818 62.3878 61.8095 62.7811C61.5675 63.1442 61.4465 63.5526 61.4465 64.0064V64.551H55.3198C55.2895 64.3997 55.2744 64.2636 55.2744 64.1426C55.2744 63.9913 55.2744 63.8098 55.2744 63.598C55.2744 62.2062 55.698 61.0112 56.5451 60.0127C57.3923 58.984 58.5873 58.1974 60.1304 57.6528C61.6734 57.1082 63.4736 56.8359 65.5309 56.8359C67.7396 56.8359 69.5851 57.1233 71.0677 57.6982C72.5804 58.273 73.7301 59.1202 74.5168 60.2396C75.3337 61.3591 75.7421 62.766 75.7421 64.4603V75.3068C75.7421 75.8514 75.8934 76.2598 76.1959 76.5321C76.5287 76.7742 76.8918 76.8952 77.2851 76.8952H78.7828V81.025C78.4802 81.1763 78.0113 81.3276 77.3759 81.4789C76.7405 81.6604 75.969 81.7512 75.0614 81.7512C74.184 81.7512 73.3973 81.615 72.7014 81.3427C72.0358 81.1007 71.4761 80.7527 71.0223 80.2989C70.5684 79.8148 70.2508 79.24 70.0692 78.5744H69.7516C69.2372 79.2097 68.6019 79.7694 67.8455 80.2535C67.1193 80.7376 66.2571 81.1158 65.2586 81.3881C64.2905 81.6604 63.171 81.7965 61.9003 81.7965ZM64.0333 77.0313C64.8804 77.0313 65.6368 76.9103 66.3024 76.6683C66.9681 76.396 67.5278 76.048 67.9816 75.6245C68.4354 75.1706 68.7834 74.626 69.0254 73.9907C69.2977 73.3553 69.4339 72.6746 69.4339 71.9484V70.6323C67.7396 70.6323 66.2268 70.7534 64.8956 70.9954C63.5643 71.2072 62.5054 71.5854 61.7188 72.13C60.9624 72.6746 60.5842 73.431 60.5842 74.3991C60.5842 74.9437 60.7203 75.4127 60.9926 75.806C61.2649 76.1993 61.6583 76.5019 62.1726 76.7137C62.6869 76.9254 63.3072 77.0313 64.0333 77.0313ZM92.4012 81.7965C89.8597 81.7965 87.7268 81.3578 86.0022 80.4804C84.2776 79.5728 82.9615 78.1962 82.0539 76.3506C81.1765 74.4748 80.7378 72.13 80.7378 69.3162C80.7378 66.442 81.1765 64.0972 82.0539 62.2819C82.9615 60.4363 84.2776 59.0597 86.0022 58.152C87.757 57.2444 89.89 56.7905 92.4012 56.7905C94.035 56.7905 95.5024 56.9872 96.8033 57.3805C98.1346 57.7738 99.2843 58.3789 100.252 59.1958C101.221 60.0127 101.947 61.0263 102.431 62.2365C102.945 63.4164 103.202 64.8233 103.202 66.4571H96.8941C96.8941 65.3679 96.7277 64.4754 96.3949 63.7795C96.0621 63.0836 95.5477 62.5542 94.8519 62.1911C94.1863 61.828 93.3391 61.6465 92.3104 61.6465C91.1002 61.6465 90.1169 61.9188 89.3605 62.4634C88.6042 63.008 88.0444 63.8098 87.6814 64.8687C87.3183 65.9276 87.1368 67.2437 87.1368 68.817V69.8608C87.1368 71.4039 87.3183 72.7048 87.6814 73.7638C88.0747 74.8227 88.6647 75.6245 89.4513 76.1691C90.2379 76.6834 91.2666 76.9406 92.5373 76.9406C93.566 76.9406 94.4132 76.759 95.0788 76.396C95.7747 76.0329 96.3041 75.4883 96.6672 74.7622C97.0303 74.0361 97.2118 73.1587 97.2118 72.13H103.202C103.202 73.673 102.945 75.0496 102.431 76.2598C101.947 77.47 101.221 78.4836 100.252 79.3005C99.3145 80.1174 98.18 80.7376 96.8487 81.1612C95.5175 81.5848 94.035 81.7965 92.4012 81.7965ZM115.058 81.7965C113.546 81.7965 112.32 81.5243 111.382 80.9797C110.444 80.4351 109.764 79.7089 109.34 78.8013C108.916 77.8634 108.705 76.8347 108.705 75.7152V62.2365H105.755V57.3805H108.932L110.112 50.5731H115.013V57.3805H119.37V62.2365H115.013V74.6714C115.013 75.3976 115.179 75.9573 115.512 76.3506C115.845 76.7137 116.39 76.8952 117.146 76.8952H119.37V81.0704C119.007 81.1914 118.583 81.2973 118.099 81.3881C117.615 81.5091 117.101 81.5999 116.556 81.6604C116.011 81.7512 115.512 81.7965 115.058 81.7965ZM123.445 53.886V48.4401H129.753V53.886H123.445ZM123.445 81.252V57.3805H129.753V81.252H123.445ZM146.028 81.7965C143.486 81.7965 141.353 81.3578 139.629 80.4804C137.904 79.5728 136.588 78.1962 135.68 76.3506C134.803 74.4748 134.364 72.13 134.364 69.3162C134.364 66.442 134.803 64.0972 135.68 62.2819C136.588 60.4363 137.904 59.0597 139.629 58.152C141.383 57.2444 143.516 56.7905 146.028 56.7905C147.661 56.7905 149.129 56.9872 150.43 57.3805C151.761 57.7738 152.911 58.3789 153.879 59.1958C154.847 60.0127 155.573 61.0263 156.057 62.2365C156.572 63.4164 156.829 64.8233 156.829 66.4571H150.52C150.52 65.3679 150.354 64.4754 150.021 63.7795C149.688 63.0836 149.174 62.5542 148.478 62.1911C147.813 61.828 146.965 61.6465 145.937 61.6465C144.727 61.6465 143.743 61.9188 142.987 62.4634C142.231 63.008 141.671 63.8098 141.308 64.8687C140.945 65.9276 140.763 67.2437 140.763 68.817V69.8608C140.763 71.4039 140.945 72.7048 141.308 73.7638C141.701 74.8227 142.291 75.6245 143.078 76.1691C143.864 76.6834 144.893 76.9406 146.164 76.9406C147.192 76.9406 148.04 76.759 148.705 76.396C149.401 76.0329 149.93 75.4883 150.294 74.7622C150.657 74.0361 150.838 73.1587 150.838 72.13H156.829C156.829 73.673 156.572 75.0496 156.057 76.2598C155.573 77.47 154.847 78.4836 153.879 79.3005C152.941 80.1174 151.806 80.7376 150.475 81.1612C149.144 81.5848 147.661 81.7965 146.028 81.7965ZM172.406 81.7965C169.774 81.7965 167.565 81.3578 165.78 80.4804C163.995 79.5728 162.649 78.1962 161.741 76.3506C160.833 74.505 160.38 72.1602 160.38 69.3162C160.38 66.442 160.833 64.0972 161.741 62.2819C162.649 60.4363 163.98 59.0748 165.735 58.1974C167.52 57.2897 169.698 56.8359 172.27 56.8359C174.69 56.8359 176.733 57.2746 178.397 58.152C180.061 58.9992 181.316 60.3304 182.163 62.1457C183.011 63.9308 183.434 66.2453 183.434 69.0893V70.7231H166.779C166.839 72.1149 167.051 73.2948 167.414 74.263C167.807 75.2311 168.397 75.9573 169.184 76.4414C170.001 76.8952 171.075 77.1221 172.406 77.1221C173.132 77.1221 173.783 77.0313 174.358 76.8498C174.963 76.6683 175.477 76.396 175.901 76.0329C176.324 75.6698 176.657 75.216 176.899 74.6714C177.141 74.1268 177.262 73.5066 177.262 72.8107H183.434C183.434 74.3235 183.162 75.6396 182.617 76.759C182.073 77.8785 181.316 78.8164 180.348 79.5728C179.38 80.2989 178.215 80.8586 176.854 81.252C175.522 81.615 174.04 81.7965 172.406 81.7965ZM166.869 66.7294H176.944C176.944 65.8217 176.823 65.0351 176.581 64.3695C176.369 63.7039 176.067 63.1593 175.674 62.7357C175.28 62.3121 174.796 62.0096 174.221 61.828C173.677 61.6163 173.057 61.5104 172.361 61.5104C171.211 61.5104 170.243 61.707 169.456 62.1003C168.7 62.4634 168.11 63.0383 167.686 63.8249C167.293 64.5813 167.021 65.5494 166.869 66.7294Z" fill="#E6E6E6"/>
<path d="M140.877 28.0595L121.951 39.4065L121.951 16.7124L140.877 28.0595Z" fill="#00DBFF" fill-opacity="0.7" stroke="#E6E6E6" stroke-width="4.85275" stroke-linejoin="round"/>
<path d="M160.288 28.0595L141.362 39.4065L141.362 16.7124L160.288 28.0595Z" fill="#00DBFF" fill-opacity="0.7" stroke="#E6E6E6" stroke-width="4.85275" stroke-linejoin="round"/>
</g>
<defs>
<clipPath id="clip0_2265_699">
<rect width="192" height="90" fill="white"/>
</clipPath>
</defs>
</svg>
