<svg width="182" height="90" viewBox="0 0 182 90" fill="none" xmlns="http://www.w3.org/2000/svg">
<g clip-path="url(#clip0_1623_4600)">
<path d="M17.0464 18.9681V70H6.53156V18.9681H17.0464ZM47.6094 18.9681L27.3859 44.1686L15.7145 56.7163L13.8218 46.7623L21.7079 35.967L34.7113 18.9681H47.6094ZM35.6576 70L20.6214 46.4118L28.4024 39.8926L48.1001 70H35.6576ZM64.3434 32.0766V70H54.2142V32.0766H64.3434ZM53.5833 22.1926C53.5833 20.7206 54.0973 19.5055 55.1254 18.5475C56.1536 17.5895 57.5322 17.1105 59.2613 17.1105C60.967 17.1105 62.3339 17.5895 63.362 18.5475C64.4135 19.5055 64.9393 20.7206 64.9393 22.1926C64.9393 23.6647 64.4135 24.8798 63.362 25.8378C62.3339 26.7958 60.967 27.2748 59.2613 27.2748C57.5322 27.2748 56.1536 26.7958 55.1254 25.8378C54.0973 24.8798 53.5833 23.6647 53.5833 22.1926ZM93.4148 32.0766V39.2266H71.3337V32.0766H93.4148ZM76.8014 22.7184H86.8956V58.5739C86.8956 59.6721 87.0358 60.5133 87.3162 61.0975C87.62 61.6816 88.0639 62.0905 88.6481 62.3242C89.2322 62.5345 89.9683 62.6396 90.8562 62.6396C91.4871 62.6396 92.0479 62.6163 92.5386 62.5695C93.0526 62.4994 93.4849 62.4293 93.8354 62.3592L93.8704 69.7897C93.0059 70.0701 92.0712 70.2921 91.0665 70.4556C90.0617 70.6192 88.9518 70.701 87.7368 70.701C85.517 70.701 83.5776 70.3388 81.9186 69.6145C80.2829 68.8667 79.0212 67.6751 78.1333 66.0394C77.2453 64.4038 76.8014 62.2541 76.8014 59.5903V22.7184ZM119.892 32.0766V39.2266H97.8114V32.0766H119.892ZM103.279 22.7184H113.373V58.5739C113.373 59.6721 113.514 60.5133 113.794 61.0975C114.098 61.6816 114.542 62.0905 115.126 62.3242C115.71 62.5345 116.446 62.6396 117.334 62.6396C117.965 62.6396 118.526 62.6163 119.016 62.5695C119.53 62.4994 119.963 62.4293 120.313 62.3592L120.348 69.7897C119.484 70.0701 118.549 70.2921 117.544 70.4556C116.539 70.6192 115.43 70.701 114.214 70.701C111.995 70.701 110.055 70.3388 108.396 69.6145C106.761 68.8667 105.499 67.6751 104.611 66.0394C103.723 64.4038 103.279 62.2541 103.279 59.5903V22.7184ZM139.045 65.724L149.104 32.0766H159.934L144.688 75.7131C144.361 76.6711 143.917 77.6992 143.356 78.7974C142.819 79.8956 142.082 80.9354 141.148 81.9168C140.237 82.9215 139.08 83.7394 137.678 84.3702C136.299 85.0011 134.605 85.3166 132.596 85.3166C131.638 85.3166 130.855 85.2582 130.247 85.1413C129.64 85.0245 128.916 84.8609 128.074 84.6506V77.2552C128.331 77.2552 128.6 77.2552 128.881 77.2552C129.161 77.2786 129.43 77.2903 129.687 77.2903C131.019 77.2903 132.105 77.1384 132.946 76.8346C133.787 76.5309 134.465 76.0635 134.979 75.4327C135.493 74.8251 135.902 74.0307 136.206 73.0493L139.045 65.724ZM134.839 32.0766L143.076 59.5553L144.513 70.2453L137.643 70.9814L124.009 32.0766H134.839Z" fill="#525C70"/>
<path d="M25.2528 18.9681V70H14.738V18.9681H25.2528ZM55.8159 18.9681L35.5924 44.1686L23.9209 56.7163L22.0283 46.7623L29.9144 35.967L42.9177 18.9681H55.8159ZM43.864 70L28.8278 46.4118L36.6088 39.8926L56.3066 70H43.864ZM72.5498 32.0766V70H62.4206V32.0766H72.5498ZM61.7897 22.1926C61.7897 20.7206 62.3037 19.5055 63.3319 18.5475C64.36 17.5895 65.7386 17.1105 67.4677 17.1105C69.1734 17.1105 70.5403 17.5895 71.5685 18.5475C72.6199 19.5055 73.1457 20.7206 73.1457 22.1926C73.1457 23.6647 72.6199 24.8798 71.5685 25.8378C70.5403 26.7958 69.1734 27.2748 67.4677 27.2748C65.7386 27.2748 64.36 26.7958 63.3319 25.8378C62.3037 24.8798 61.7897 23.6647 61.7897 22.1926ZM101.621 32.0766V39.2266H79.5401V32.0766H101.621ZM85.0078 22.7184H95.102V58.5739C95.102 59.6721 95.2422 60.5133 95.5226 61.0975C95.8264 61.6816 96.2703 62.0905 96.8545 62.3242C97.4386 62.5345 98.1747 62.6396 99.0626 62.6396C99.6935 62.6396 100.254 62.6163 100.745 62.5695C101.259 62.4994 101.691 62.4293 102.042 62.3592L102.077 69.7897C101.212 70.0701 100.278 70.2921 99.2729 70.4556C98.2681 70.6192 97.1583 70.701 95.9432 70.701C93.7234 70.701 91.784 70.3388 90.125 69.6145C88.4894 68.8667 87.2276 67.6751 86.3397 66.0394C85.4518 64.4038 85.0078 62.2541 85.0078 59.5903V22.7184ZM128.099 32.0766V39.2266H106.018V32.0766H128.099ZM111.486 22.7184H121.58V58.5739C121.58 59.6721 121.72 60.5133 122 61.0975C122.304 61.6816 122.748 62.0905 123.332 62.3242C123.916 62.5345 124.652 62.6396 125.54 62.6396C126.171 62.6396 126.732 62.6163 127.223 62.5695C127.737 62.4994 128.169 62.4293 128.52 62.3592L128.555 69.7897C127.69 70.0701 126.755 70.2921 125.751 70.4556C124.746 70.6192 123.636 70.701 122.421 70.701C120.201 70.701 118.262 70.3388 116.603 69.6145C114.967 68.8667 113.705 67.6751 112.817 66.0394C111.929 64.4038 111.486 62.2541 111.486 59.5903V22.7184ZM147.251 65.724L157.31 32.0766H168.141L152.894 75.7131C152.567 76.6711 152.123 77.6992 151.562 78.7974C151.025 79.8956 150.289 80.9354 149.354 81.9168C148.443 82.9215 147.286 83.7394 145.884 84.3702C144.506 85.0011 142.812 85.3166 140.802 85.3166C139.844 85.3166 139.061 85.2582 138.454 85.1413C137.846 85.0245 137.122 84.8609 136.281 84.6506V77.2552C136.538 77.2552 136.807 77.2552 137.087 77.2552C137.367 77.2786 137.636 77.2903 137.893 77.2903C139.225 77.2903 140.312 77.1384 141.153 76.8346C141.994 76.5309 142.672 76.0635 143.186 75.4327C143.7 74.8251 144.109 74.0307 144.412 73.0493L147.251 65.724ZM143.045 32.0766L151.282 59.5553L152.719 70.2453L145.849 70.9814L132.215 32.0766H143.045Z" fill="#E6E6E6"/>
</g>
<defs>
<clipPath id="clip0_1623_4600">
<rect width="182" height="90" fill="white"/>
</clipPath>
</defs>
</svg>
