<svg width="410" height="90" viewBox="0 0 410 90" fill="none" xmlns="http://www.w3.org/2000/svg">
<g clip-path="url(#clip0_1513_4686)">
<path d="M143.749 19.3815V75.2256H142.963L116.73 45.3007L114.295 42.159L114.688 49.7777V74.126H105.027V18.439H105.891L131.732 48.5995L134.481 52.1732L134.088 44.6724V19.3815H143.749ZM187.194 35.0116V74.126H178.318L178.122 69.06C176.97 70.8664 175.543 72.3195 173.841 73.4191C172.166 74.5187 170.019 75.0685 167.401 75.0685C163.526 75.0685 160.633 73.838 158.722 71.377C156.811 68.916 155.855 65.4077 155.855 60.8522V35.0116H165.673V59.9882C165.673 62.266 166.079 64.0594 166.89 65.3684C167.728 66.6513 169.05 67.2927 170.857 67.2927C172.087 67.2927 173.187 66.9917 174.155 66.3895C175.15 65.7612 175.936 64.8972 176.512 63.7976C177.088 62.6718 177.376 61.402 177.376 59.9882V35.0116H187.194ZM214.21 75.0685C210.204 75.0685 206.866 74.1652 204.196 72.3588C201.525 70.5261 199.549 68.0782 198.266 65.015C197.009 61.9518 196.381 58.5221 196.381 54.7259C196.381 51.0082 197.088 47.5785 198.501 44.4367C199.915 41.295 202.01 38.7816 204.785 36.8966C207.56 35.0116 210.885 34.0691 214.76 34.0691C217.168 34.0691 219.263 34.3309 221.043 34.8545C222.85 35.3519 224.578 36.2683 226.227 37.6035L223.007 45.9291C222.247 44.8033 221.122 43.9131 219.629 43.2586C218.163 42.5779 216.723 42.2375 215.309 42.2375C209.602 42.2375 206.748 46.3741 206.748 54.6473C206.748 58.9672 207.442 62.122 208.83 64.1117C210.243 66.0753 212.403 67.0571 215.309 67.0571C217.064 67.0571 218.661 66.7298 220.101 66.0753C221.567 65.4208 222.719 64.6223 223.557 63.6798L226.541 70.6701C225.965 71.2984 225.088 71.953 223.91 72.6337C222.758 73.2882 221.344 73.8511 219.669 74.3223C217.993 74.8198 216.173 75.0685 214.21 75.0685ZM234.409 14.4333H243.991V74.126H234.409V14.4333ZM270.137 75.147C265.922 75.147 262.44 74.2569 259.691 72.4766C256.942 70.6701 254.926 68.2614 253.643 65.2506C252.386 62.2398 251.758 58.8363 251.758 55.04C251.758 51.1653 252.465 47.6439 253.878 44.476C255.318 41.2819 257.413 38.7555 260.162 36.8966C262.911 35.0116 266.183 34.0691 269.98 34.0691C275.635 34.0691 279.68 35.7054 282.115 38.978C284.549 42.2244 285.767 47.081 285.767 53.5477C285.767 54.8044 285.714 56.2182 285.61 57.789H262.047C262.204 60.9569 263.081 63.4049 264.678 65.1328C266.301 66.8346 268.671 67.6855 271.786 67.6855C273.409 67.6855 275.15 67.332 277.009 66.6251C278.868 65.8921 280.243 65.015 281.133 63.9939L284.275 71.4555C280.583 73.9165 275.87 75.147 270.137 75.147ZM275.792 51.6627C275.792 47.8141 275.308 45.1698 274.339 43.7298C273.396 42.2637 272.022 41.5306 270.215 41.5306C267.676 41.5306 265.699 42.4732 264.285 44.3582C262.898 46.2432 262.125 48.6781 261.968 51.6627H275.792ZM294.686 18.2034H305.682V28.6496H294.686V18.2034ZM295.078 35.0116H305.289V74.126H295.078V35.0116Z" fill="#00BFB3"/>
<path d="M371.587 49.875L387.037 68.1L374.737 76.8L361.687 56.325L348.787 76.8L336.337 67.95L351.712 49.65L330.037 43.2L334.387 29.4L355.462 38.25L354.037 15.6H369.187L367.987 38.25L388.837 29.7L393.637 43.5L371.587 49.875Z" fill="#00BFB3"/>
<path d="M57.5875 49.875L73.0375 68.1L60.7375 76.8L47.6875 56.325L34.7875 76.8L22.3375 67.95L37.7125 49.65L16.0375 43.2L20.3875 29.4L41.4625 38.25L40.0375 15.6H55.1875L53.9875 38.25L74.8375 29.7L79.6375 43.5L57.5875 49.875Z" fill="#00BFB3"/>
</g>
<defs>
<clipPath id="clip0_1513_4686">
<rect width="410" height="90" fill="white"/>
</clipPath>
</defs>
</svg>
