<svg width="156" height="34" viewBox="0 0 156 34" fill="none" xmlns="http://www.w3.org/2000/svg">
<g clip-path="url(#clip0_1625_4707)">
<path d="M36.9961 26V7.98286H46.4774C47.8081 7.98286 48.9112 8.21048 49.7867 8.66573C50.6621 9.12097 51.3187 9.76882 51.7565 10.6093C52.1942 11.4497 52.4131 12.439 52.4131 13.5771C52.4131 14.7502 52.1504 15.792 51.6251 16.7025C51.0999 17.5955 50.3295 18.2696 49.3139 18.7249L53.0434 26H49.3139L46.0046 19.3027H40.4104V26H36.9961ZM40.4104 16.4399H46.2147C47.0902 16.4399 47.7643 16.186 48.2371 15.6782C48.7098 15.1705 48.9462 14.4701 48.9462 13.5771C48.9462 12.9993 48.8412 12.5178 48.631 12.1326C48.4209 11.7299 48.1145 11.4235 47.7118 11.2133C47.3091 11.0032 46.8101 10.8982 46.2147 10.8982H40.4104V16.4399ZM54.7452 10.0577V7.01109H57.9494V10.0577H54.7452ZM54.7452 26V12.1851H57.9494V26H54.7452ZM65.9587 26.3152C64.9607 26.3152 64.0852 26.2101 63.3323 26C62.5794 25.7724 61.9491 25.466 61.4413 25.0808C60.9336 24.6956 60.5484 24.2491 60.2857 23.7413C60.0406 23.216 59.918 22.647 59.918 22.0341C59.918 21.9466 59.918 21.8678 59.918 21.7978C59.9355 21.7277 59.9443 21.6752 59.9443 21.6402H63.096C63.096 21.6752 63.096 21.7102 63.096 21.7452C63.096 21.7802 63.096 21.8153 63.096 21.8503C63.1135 22.323 63.2623 22.7082 63.5425 23.0059C63.8226 23.286 64.1903 23.4874 64.6455 23.61C65.1008 23.7325 65.5823 23.7938 66.0901 23.7938C66.5453 23.7938 66.9743 23.75 67.377 23.6625C67.7972 23.5574 68.1387 23.3999 68.4013 23.1897C68.6815 22.9621 68.8215 22.6732 68.8215 22.323C68.8215 21.8678 68.6464 21.5176 68.2962 21.2725C67.9461 21.0273 67.4821 20.826 66.9043 20.6684C66.344 20.5108 65.7399 20.3445 65.092 20.1694C64.5142 20.0118 63.9364 19.8367 63.3586 19.6441C62.7808 19.4515 62.2555 19.2064 61.7828 18.9087C61.3275 18.611 60.9511 18.2258 60.6534 17.7531C60.3733 17.2803 60.2332 16.6938 60.2332 15.9934C60.2332 15.3105 60.382 14.7152 60.6797 14.2074C60.9773 13.6997 61.3888 13.2794 61.9141 12.9468C62.4394 12.5966 63.0609 12.3339 63.7788 12.1588C64.4967 11.9838 65.2759 11.8962 66.1163 11.8962C66.9393 11.8962 67.6834 11.9838 68.3488 12.1588C69.0316 12.3339 69.6182 12.5878 70.1085 12.9205C70.6162 13.2357 71.0014 13.6296 71.2641 14.1024C71.5442 14.5576 71.6843 15.0654 71.6843 15.6257C71.6843 15.7483 71.6756 15.8708 71.658 15.9934C71.658 16.116 71.658 16.186 71.658 16.2035H68.5326V16.0197C68.5326 15.687 68.4276 15.4068 68.2175 15.1792C68.0249 14.9341 67.7359 14.7415 67.3507 14.6014C66.983 14.4613 66.519 14.3913 65.9587 14.3913C65.5385 14.3913 65.1708 14.4263 64.8557 14.4963C64.5405 14.5664 64.2778 14.6627 64.0677 14.7853C63.8751 14.9078 63.7263 15.0479 63.6212 15.2055C63.5162 15.3631 63.4637 15.5382 63.4637 15.7308C63.4637 16.0634 63.595 16.3261 63.8576 16.5187C64.1203 16.7113 64.4705 16.8776 64.9082 17.0177C65.3634 17.1578 65.8537 17.3066 66.379 17.4642C67.0093 17.6393 67.6572 17.8231 68.3225 18.0157C68.9879 18.1908 69.6007 18.4184 70.161 18.6986C70.7388 18.9787 71.2028 19.3727 71.553 19.8805C71.9032 20.3882 72.0783 21.0624 72.0783 21.9028C72.0783 22.7082 71.9207 23.3999 71.6055 23.9777C71.3079 24.538 70.8789 24.9932 70.3186 25.3434C69.7758 25.6761 69.1279 25.9212 68.375 26.0788C67.6396 26.2364 66.8342 26.3152 65.9587 26.3152ZM72.0385 26L76.9761 18.8824L72.3799 12.1851H76.267L78.9984 16.4661H79.156L81.94 12.1851H85.5907L80.9682 18.8036L85.8534 26H82.0188L78.9459 21.2199H78.7883L75.6892 26H72.0385ZM91.5026 26V7.98286H94.0239L99.2505 21.1412C99.3555 21.4213 99.4606 21.719 99.5657 22.0341C99.6882 22.3493 99.7933 22.647 99.8808 22.9271C99.9859 23.1897 100.065 23.4174 100.117 23.61H100.249C100.336 23.3648 100.432 23.0934 100.537 22.7958C100.642 22.4806 100.748 22.1742 100.853 21.8765C100.958 21.5789 101.036 21.3338 101.089 21.1412L106.316 7.98286H108.837V26H107.156V14.1812C107.156 13.866 107.156 13.4633 107.156 12.973C107.173 12.4828 107.182 11.9925 107.182 11.5022C107.2 10.9945 107.208 10.5655 107.208 10.2153H107.025C106.937 10.5305 106.841 10.8456 106.736 11.1608C106.648 11.4585 106.552 11.7561 106.447 12.0538C106.342 12.3514 106.237 12.6316 106.132 12.8942L100.8 26H99.5394L94.2078 12.9205C94.1027 12.6579 93.9977 12.3865 93.8926 12.1063C93.7876 11.8087 93.6825 11.5022 93.5774 11.1871C93.4724 10.8719 93.3761 10.548 93.2885 10.2153H93.1047C93.1222 10.548 93.131 10.9595 93.131 11.4497C93.131 11.9225 93.1397 12.404 93.1572 12.8942C93.1747 13.3845 93.1835 13.8135 93.1835 14.1812V26H91.5026ZM116.785 26.3152C115.892 26.3152 115.104 26.2276 114.421 26.0525C113.738 25.8774 113.169 25.6235 112.714 25.2909C112.258 24.9407 111.908 24.5117 111.663 24.0039C111.436 23.4787 111.322 22.8833 111.322 22.218C111.322 22.1479 111.322 22.0691 111.322 21.9816C111.339 21.8941 111.348 21.8153 111.348 21.7452H112.871C112.854 21.8503 112.845 21.9378 112.845 22.0079C112.845 22.0604 112.845 22.1217 112.845 22.1917C112.845 22.9271 113.011 23.5049 113.344 23.9251C113.694 24.3279 114.176 24.608 114.789 24.7656C115.401 24.9232 116.111 25.002 116.916 25.002C117.616 25.002 118.238 24.9057 118.781 24.7131C119.323 24.5029 119.752 24.2053 120.068 23.8201C120.4 23.4349 120.567 22.9621 120.567 22.4018C120.567 21.7015 120.357 21.1762 119.936 20.826C119.534 20.4583 119.008 20.1781 118.36 19.9855C117.713 19.7754 117.038 19.5741 116.338 19.3815C115.795 19.2239 115.253 19.0575 114.71 18.8824C114.167 18.6898 113.677 18.4535 113.239 18.1733C112.819 17.8932 112.477 17.543 112.215 17.1228C111.952 16.685 111.821 16.1422 111.821 15.4944C111.821 14.9516 111.935 14.4613 112.162 14.0236C112.39 13.5683 112.714 13.1831 113.134 12.868C113.572 12.5353 114.097 12.2902 114.71 12.1326C115.34 11.9575 116.058 11.8699 116.863 11.8699C117.809 11.8699 118.597 11.975 119.227 12.1851C119.875 12.3952 120.383 12.6929 120.75 13.0781C121.136 13.4458 121.407 13.8485 121.565 14.2862C121.74 14.724 121.827 15.1792 121.827 15.652C121.827 15.7045 121.827 15.7745 121.827 15.8621C121.827 15.9321 121.819 16.0109 121.801 16.0985H120.278V15.7045C120.278 15.3368 120.19 14.9603 120.015 14.5751C119.858 14.1899 119.525 13.866 119.017 13.6034C118.527 13.3232 117.783 13.1831 116.785 13.1831C116.207 13.1831 115.708 13.2357 115.288 13.3407C114.867 13.4458 114.517 13.5946 114.237 13.7872C113.957 13.9623 113.738 14.1899 113.58 14.4701C113.44 14.7502 113.37 15.0829 113.37 15.4681C113.37 16.0284 113.537 16.4574 113.869 16.7551C114.219 17.0352 114.666 17.2628 115.209 17.4379C115.752 17.5955 116.329 17.7794 116.942 17.9895C117.555 18.1821 118.168 18.3747 118.781 18.5673C119.394 18.7599 119.954 18.9963 120.462 19.2764C120.969 19.5566 121.372 19.9242 121.67 20.3795C121.985 20.8347 122.142 21.4301 122.142 22.1654C122.142 22.8308 122.002 23.4261 121.722 23.9514C121.46 24.4592 121.092 24.8882 120.619 25.2383C120.146 25.5885 119.577 25.8512 118.912 26.0263C118.264 26.2189 117.555 26.3152 116.785 26.3152ZM128.667 26.3152C127.774 26.3152 126.986 26.2276 126.303 26.0525C125.62 25.8774 125.051 25.6235 124.596 25.2909C124.141 24.9407 123.791 24.5117 123.546 24.0039C123.318 23.4787 123.204 22.8833 123.204 22.218C123.204 22.1479 123.204 22.0691 123.204 21.9816C123.222 21.8941 123.23 21.8153 123.23 21.7452H124.754C124.736 21.8503 124.727 21.9378 124.727 22.0079C124.727 22.0604 124.727 22.1217 124.727 22.1917C124.727 22.9271 124.894 23.5049 125.226 23.9251C125.577 24.3279 126.058 24.608 126.671 24.7656C127.284 24.9232 127.993 25.002 128.798 25.002C129.499 25.002 130.12 24.9057 130.663 24.7131C131.206 24.5029 131.635 24.2053 131.95 23.8201C132.283 23.4349 132.449 22.9621 132.449 22.4018C132.449 21.7015 132.239 21.1762 131.819 20.826C131.416 20.4583 130.891 20.1781 130.243 19.9855C129.595 19.7754 128.921 19.5741 128.221 19.3815C127.678 19.2239 127.135 19.0575 126.592 18.8824C126.049 18.6898 125.559 18.4535 125.121 18.1733C124.701 17.8932 124.36 17.543 124.097 17.1228C123.834 16.685 123.703 16.1422 123.703 15.4944C123.703 14.9516 123.817 14.4613 124.045 14.0236C124.272 13.5683 124.596 13.1831 125.016 12.868C125.454 12.5353 125.979 12.2902 126.592 12.1326C127.223 11.9575 127.94 11.8699 128.746 11.8699C129.691 11.8699 130.479 11.975 131.11 12.1851C131.757 12.3952 132.265 12.6929 132.633 13.0781C133.018 13.4458 133.29 13.8485 133.447 14.2862C133.622 14.724 133.71 15.1792 133.71 15.652C133.71 15.7045 133.71 15.7745 133.71 15.8621C133.71 15.9321 133.701 16.0109 133.683 16.0985H132.16V15.7045C132.16 15.3368 132.073 14.9603 131.898 14.5751C131.74 14.1899 131.407 13.866 130.899 13.6034C130.409 13.3232 129.665 13.1831 128.667 13.1831C128.089 13.1831 127.59 13.2357 127.17 13.3407C126.75 13.4458 126.4 13.5946 126.119 13.7872C125.839 13.9623 125.62 14.1899 125.463 14.4701C125.323 14.7502 125.253 15.0829 125.253 15.4681C125.253 16.0284 125.419 16.4574 125.752 16.7551C126.102 17.0352 126.548 17.2628 127.091 17.4379C127.634 17.5955 128.212 17.7794 128.825 17.9895C129.437 18.1821 130.05 18.3747 130.663 18.5673C131.276 18.7599 131.836 18.9963 132.344 19.2764C132.852 19.5566 133.254 19.9242 133.552 20.3795C133.867 20.8347 134.025 21.4301 134.025 22.1654C134.025 22.8308 133.885 23.4261 133.605 23.9514C133.342 24.4592 132.974 24.8882 132.502 25.2383C132.029 25.5885 131.46 25.8512 130.794 26.0263C130.147 26.2189 129.437 26.3152 128.667 26.3152ZM136.19 30.5437V12.1851H137.345L137.529 14.26H137.713C138.221 13.437 138.842 12.833 139.578 12.4477C140.313 12.0625 141.145 11.8699 142.073 11.8699C143.246 11.8699 144.235 12.1238 145.041 12.6316C145.846 13.1394 146.468 13.936 146.905 15.0216C147.343 16.1072 147.562 17.5167 147.562 19.2501C147.562 20.861 147.334 22.1917 146.879 23.2423C146.441 24.2753 145.82 25.0457 145.014 25.5535C144.209 26.0613 143.237 26.3152 142.099 26.3152C141.574 26.3152 141.048 26.2451 140.523 26.1051C139.998 25.965 139.508 25.7374 139.052 25.4222C138.597 25.107 138.212 24.678 137.897 24.1353H137.713V30.5437H136.19ZM141.784 24.9757C142.694 24.9757 143.456 24.7919 144.069 24.4242C144.682 24.039 145.146 23.4436 145.461 22.6382C145.776 21.8153 145.934 20.7559 145.934 19.4603V18.7249C145.934 17.3241 145.759 16.2298 145.408 15.4419C145.076 14.6364 144.603 14.0674 143.99 13.7347C143.395 13.3845 142.712 13.2094 141.941 13.2094C140.961 13.2094 140.156 13.4283 139.525 13.866C138.895 14.3037 138.431 14.9428 138.133 15.7833C137.853 16.6237 137.713 17.648 137.713 18.8562V19.3552C137.713 20.5633 137.836 21.5351 138.081 22.2705C138.343 23.0059 138.676 23.575 139.079 23.9777C139.481 24.3629 139.919 24.6255 140.392 24.7656C140.865 24.9057 141.329 24.9757 141.784 24.9757Z" fill="#00DBFF"/>
<path d="M150.958 29.1008C150.567 29.1008 150.21 29.0358 149.885 28.9057C149.559 28.7706 149.277 28.5829 149.036 28.3428C148.801 28.1026 148.616 27.8199 148.481 27.4947C148.351 27.1694 148.286 26.8142 148.286 26.4289C148.286 26.0437 148.351 25.6884 148.481 25.3632C148.616 25.0379 148.801 24.7577 149.036 24.5226C149.277 24.2824 149.559 24.0973 149.885 23.9672C150.21 23.8321 150.567 23.7645 150.958 23.7645C151.343 23.7645 151.698 23.8321 152.024 23.9672C152.349 24.0973 152.631 24.2824 152.872 24.5226C153.112 24.7577 153.297 25.0379 153.427 25.3632C153.562 25.6884 153.63 26.0437 153.63 26.4289C153.63 26.8142 153.562 27.1719 153.427 27.5022C153.297 27.8274 153.112 28.1101 152.872 28.3503C152.631 28.5854 152.349 28.7706 152.024 28.9057C151.698 29.0358 151.343 29.1008 150.958 29.1008ZM150.973 28.0275C150.643 28.0275 150.365 27.97 150.14 27.8549C149.92 27.7348 149.754 27.5572 149.644 27.3221C149.539 27.0869 149.487 26.7917 149.487 26.4364C149.487 26.0762 149.539 25.7785 149.644 25.5433C149.754 25.3081 149.92 25.133 150.14 25.0179C150.365 24.9028 150.643 24.8453 150.973 24.8453C151.268 24.8453 151.516 24.8953 151.716 24.9954C151.916 25.0905 152.069 25.2331 152.174 25.4232C152.279 25.6133 152.331 25.846 152.331 26.1212H151.551C151.551 25.9761 151.531 25.856 151.491 25.761C151.451 25.6609 151.388 25.5858 151.303 25.5358C151.223 25.4858 151.11 25.4607 150.965 25.4607C150.725 25.4607 150.552 25.5383 150.447 25.6934C150.347 25.8435 150.297 26.0712 150.297 26.3764V26.4815C150.297 26.6966 150.32 26.8742 150.365 27.0143C150.415 27.1494 150.487 27.2495 150.582 27.3145C150.683 27.3796 150.81 27.4121 150.965 27.4121C151.11 27.4121 151.228 27.3871 151.318 27.3371C151.408 27.282 151.473 27.207 151.513 27.1119C151.558 27.0118 151.581 26.8942 151.581 26.7592H152.331C152.331 27.0093 152.281 27.2295 152.181 27.4196C152.081 27.6098 151.931 27.7599 151.731 27.8699C151.531 27.975 151.278 28.0275 150.973 28.0275ZM150.95 28.643C151.371 28.643 151.741 28.5479 152.061 28.3578C152.386 28.1626 152.641 27.9 152.827 27.5697C153.017 27.2345 153.112 26.8542 153.112 26.4289C153.112 26.0036 153.017 25.6259 152.827 25.2956C152.641 24.9604 152.386 24.6977 152.061 24.5076C151.741 24.3174 151.373 24.2224 150.958 24.2224C150.537 24.2224 150.165 24.3174 149.839 24.5076C149.514 24.6977 149.259 24.9579 149.074 25.2881C148.889 25.6184 148.796 25.9986 148.796 26.4289C148.796 26.8542 148.889 27.2345 149.074 27.5697C149.259 27.9 149.514 28.1626 149.839 28.3578C150.165 28.5479 150.535 28.643 150.95 28.643Z" fill="#00DBFF"/>
<path d="M17.9283 3C10.196 3.04308 3.96428 9.33945 4.00018 17.0717C4.04325 24.804 10.3396 31.0357 18.0719 30.9998C25.8042 30.9639 32.0359 24.6604 32 16.9281C31.9641 9.2533 25.7467 3.04308 18.0719 3H17.9283Z" stroke="#00DBFF" stroke-width="1.91778"/>
<path d="M4 17.0164L32.0335 17.0164M18.0168 3.62258L18.0168 30.4102M9.39106 27.388C14.0274 21.1856 14.0274 12.8471 9.39106 6.64476M26.6425 6.64477C22.0061 12.8471 22.0061 21.1856 26.6425 27.388M4.3594 18.0467C10.764 25.293 22.0996 26.2066 29.683 20.0866C30.4521 19.4685 31.1638 18.7816 31.8179 18.0467M31.8179 15.9861C25.4133 8.73969 14.0777 7.82617 6.49426 13.9461C5.72514 14.5711 5.00633 15.2511 4.3594 15.9861" stroke="#00DBFF" stroke-width="0.991359"/>
<circle cx="56.5" cy="8.5" r="2.5" fill="#00DBFF"/>
<path d="M20 17C20 18.1046 19.1046 19 18 19C16.8954 19 16 18.1046 16 17C16 15.8954 16.8954 15 18 15C19.1046 15 20 15.8954 20 17Z" fill="#00DBFF"/>
</g>
<defs>
<clipPath id="clip0_1625_4707">
<rect width="156" height="34" fill="white"/>
</clipPath>
</defs>
</svg>
