<svg width="334" height="90" viewBox="0 0 334 90" fill="none" xmlns="http://www.w3.org/2000/svg">
<g clip-path="url(#clip0_1523_4787)">
<path d="M78.8849 5.375V85H62.5333V5.375H78.8849ZM103.385 5.375V18.2266H38.4162V5.375H103.385ZM163.924 72.2031V85H123.838V72.2031H163.924ZM129.143 5.375V85H112.736V5.375H129.143ZM214.783 64.1641C214.783 62.7422 214.565 61.4661 214.127 60.3359C213.726 59.1693 212.96 58.112 211.83 57.1641C210.7 56.1797 209.114 55.2135 207.072 54.2656C205.031 53.3177 202.388 52.3333 199.143 51.3125C195.533 50.1458 192.106 48.8333 188.861 47.375C185.653 45.9167 182.809 44.2214 180.33 42.2891C177.888 40.3203 175.955 38.0417 174.533 35.4531C173.148 32.8646 172.455 29.8568 172.455 26.4297C172.455 23.112 173.184 20.1042 174.643 17.4062C176.101 14.6719 178.143 12.3385 180.768 10.4062C183.393 8.4375 186.492 6.92448 190.065 5.86719C193.674 4.8099 197.63 4.28125 201.932 4.28125C207.802 4.28125 212.924 5.33854 217.299 7.45312C221.674 9.56771 225.065 12.4661 227.471 16.1484C229.914 19.8307 231.135 24.0417 231.135 28.7812H214.838C214.838 26.4479 214.346 24.4062 213.361 22.6562C212.414 20.8698 210.955 19.4661 208.986 18.4453C207.054 17.4245 204.611 16.9141 201.658 16.9141C198.815 16.9141 196.445 17.3516 194.549 18.2266C192.653 19.0651 191.231 20.2135 190.283 21.6719C189.335 23.0938 188.861 24.6979 188.861 26.4844C188.861 27.8333 189.19 29.0547 189.846 30.1484C190.539 31.2422 191.559 32.263 192.908 33.2109C194.257 34.1589 195.916 35.0521 197.885 35.8906C199.854 36.7292 202.132 37.5495 204.721 38.3516C209.059 39.6641 212.869 41.1406 216.151 42.7812C219.468 44.4219 222.239 46.263 224.463 48.3047C226.687 50.3464 228.364 52.6615 229.494 55.25C230.624 57.8385 231.19 60.7734 231.19 64.0547C231.19 67.5182 230.515 70.6172 229.166 73.3516C227.817 76.0859 225.867 78.401 223.315 80.2969C220.763 82.1927 217.718 83.6328 214.182 84.6172C210.645 85.6016 206.69 86.0938 202.315 86.0938C198.377 86.0938 194.494 85.5833 190.666 84.5625C186.838 83.5052 183.356 81.9193 180.221 79.8047C177.122 77.6901 174.643 74.9922 172.783 71.7109C170.924 68.4297 169.994 64.5469 169.994 60.0625H186.455C186.455 62.5417 186.838 64.638 187.604 66.3516C188.369 68.0651 189.445 69.4505 190.83 70.5078C192.252 71.5651 193.929 72.3307 195.861 72.8047C197.83 73.2786 199.981 73.5156 202.315 73.5156C205.158 73.5156 207.492 73.1146 209.315 72.3125C211.174 71.5104 212.541 70.3984 213.416 68.9766C214.328 67.5547 214.783 65.9505 214.783 64.1641ZM295.447 37.8047V50.6016H253.885V37.8047H295.447ZM258.752 5.375V85H242.346V5.375H258.752ZM307.151 5.375V85H290.799V5.375H307.151Z" fill="#E6E6E6"/>
<path d="M67.03 5.375V85H50.6784V5.375H67.03ZM91.53 5.375V18.2266H26.5612V5.375H91.53ZM152.069 72.2031V85H111.983V72.2031H152.069ZM117.288 5.375V85H100.882V5.375H117.288ZM202.928 64.1641C202.928 62.7422 202.71 61.4661 202.272 60.3359C201.871 59.1693 201.105 58.112 199.975 57.1641C198.845 56.1797 197.259 55.2135 195.217 54.2656C193.176 53.3177 190.533 52.3333 187.288 51.3125C183.678 50.1458 180.251 48.8333 177.007 47.375C173.798 45.9167 170.954 44.2214 168.475 42.2891C166.033 40.3203 164.1 38.0417 162.678 35.4531C161.293 32.8646 160.6 29.8568 160.6 26.4297C160.6 23.112 161.329 20.1042 162.788 17.4062C164.246 14.6719 166.288 12.3385 168.913 10.4062C171.538 8.4375 174.637 6.92448 178.21 5.86719C181.819 4.8099 185.775 4.28125 190.077 4.28125C195.947 4.28125 201.069 5.33854 205.444 7.45312C209.819 9.56771 213.21 12.4661 215.616 16.1484C218.059 19.8307 219.28 24.0417 219.28 28.7812H202.983C202.983 26.4479 202.491 24.4062 201.507 22.6562C200.559 20.8698 199.1 19.4661 197.132 18.4453C195.199 17.4245 192.757 16.9141 189.803 16.9141C186.96 16.9141 184.59 17.3516 182.694 18.2266C180.798 19.0651 179.376 20.2135 178.428 21.6719C177.48 23.0938 177.007 24.6979 177.007 26.4844C177.007 27.8333 177.335 29.0547 177.991 30.1484C178.684 31.2422 179.704 32.263 181.053 33.2109C182.402 34.1589 184.061 35.0521 186.03 35.8906C187.999 36.7292 190.277 37.5495 192.866 38.3516C197.204 39.6641 201.014 41.1406 204.296 42.7812C207.613 44.4219 210.384 46.263 212.608 48.3047C214.832 50.3464 216.509 52.6615 217.639 55.25C218.77 57.8385 219.335 60.7734 219.335 64.0547C219.335 67.5182 218.66 70.6172 217.311 73.3516C215.962 76.0859 214.012 78.401 211.46 80.2969C208.908 82.1927 205.863 83.6328 202.327 84.6172C198.79 85.6016 194.835 86.0938 190.46 86.0938C186.522 86.0938 182.639 85.5833 178.811 84.5625C174.983 83.5052 171.501 81.9193 168.366 79.8047C165.267 77.6901 162.788 74.9922 160.928 71.7109C159.069 68.4297 158.139 64.5469 158.139 60.0625H174.6C174.6 62.5417 174.983 64.638 175.749 66.3516C176.514 68.0651 177.59 69.4505 178.975 70.5078C180.397 71.5651 182.074 72.3307 184.007 72.8047C185.975 73.2786 188.126 73.5156 190.46 73.5156C193.303 73.5156 195.637 73.1146 197.46 72.3125C199.319 71.5104 200.686 70.3984 201.561 68.9766C202.473 67.5547 202.928 65.9505 202.928 64.1641ZM283.592 37.8047V50.6016H242.03V37.8047H283.592ZM246.897 5.375V85H230.491V5.375H246.897ZM295.296 5.375V85H278.944V5.375H295.296Z" fill="#00DBFF"/>
</g>
<defs>
<clipPath id="clip0_1523_4787">
<rect width="334" height="90" fill="white"/>
</clipPath>
</defs>
</svg>
