<svg width="160" height="80" viewBox="0 0 160 80" fill="none" xmlns="http://www.w3.org/2000/svg">
<g clip-path="url(#clip0_2426_5249)">
<path d="M39.9999 12C24.6144 12.0856 11.9289 24.5932 12.0003 39.9532C12.0717 55.3132 24.6143 68.0713 39.9999 68" stroke="#E6E6E6" stroke-width="2"/>
<path d="M38.9999 68.0005C38.9999 68.5528 39.4476 69.0005 39.9999 69.0005C40.5522 69.0005 40.9999 68.5528 40.9999 68.0005L38.9999 68.0005ZM40.9999 12.0002C40.9999 11.4479 40.5522 11.0002 39.9999 11.0002C39.4476 11.0002 38.9999 11.4479 38.9999 12.0002L40.9999 12.0002ZM13.1775 38.8705C12.6253 38.8679 12.1754 39.3134 12.1727 39.8657C12.17 40.418 12.6156 40.8678 13.1679 40.8705L13.1775 38.8705ZM39.995 41.0003C40.5473 41.003 40.9972 40.5574 40.9999 40.0052C41.0025 39.4529 40.557 39.003 40.0047 39.0003L39.995 41.0003ZM19.9018 57.6991C19.4592 58.0294 19.3681 58.656 19.6984 59.0986C20.0288 59.5412 20.6553 59.6322 21.098 59.3019L19.9018 57.6991ZM21.098 19.1991C20.6553 18.8687 20.0288 18.9598 19.6984 19.4024C19.3681 19.845 19.4592 20.4716 19.9018 20.8019L21.098 19.1991ZM38.435 13.2047C38.8491 12.8393 38.8886 12.2074 38.5232 11.7933C38.1578 11.3791 37.5259 11.3397 37.1118 11.7051L38.435 13.2047ZM33.7143 62.7597L32.9366 63.3884L32.9387 63.391L33.7143 62.7597ZM37.1133 67.7517C37.5281 68.1163 38.16 68.0755 38.5246 67.6607C38.8891 67.2458 38.8484 66.614 38.4335 66.2494L37.1133 67.7517ZM39.9999 28.0005L40.9999 28.0005L39.9999 28.0005ZM40.1392 51.9903C40.6861 51.9133 41.0671 51.4076 40.9901 50.8607C40.9132 50.3138 40.4075 49.9328 39.8606 50.0097L40.1392 51.9903ZM38.9999 66C38.9999 66.5523 39.4476 67 39.9999 67C40.5522 67 40.9999 66.5523 40.9999 66L38.9999 66ZM40.9999 64.5005C40.9999 63.9482 40.5522 63.5005 39.9999 63.5005C39.4476 63.5005 38.9999 63.9482 38.9999 64.5005L40.9999 64.5005ZM13.1679 40.8705L39.995 41.0003L40.0047 39.0003L13.1775 38.8705L13.1679 40.8705ZM37.1118 11.7051C22.2867 24.7862 20.4266 47.9126 32.9366 63.3884L34.492 62.1311C22.6472 47.4782 24.4226 25.5688 38.435 13.2047L37.1118 11.7051ZM32.9387 63.391C34.2138 64.9574 35.605 66.4263 37.1133 67.7517L38.4335 66.2494C37.0171 65.0047 35.7021 63.6177 34.4898 62.1284L32.9387 63.391ZM19.9018 20.8019C26.1184 25.4411 32.4336 29.0005 39.9999 29.0005L39.9999 27.0005C33.0996 27.0005 27.2227 23.7698 21.098 19.1991L19.9018 20.8019ZM40.9999 28.0005L40.9999 12.0002L38.9999 12.0002L38.9999 28.0005L40.9999 28.0005ZM39.8606 50.0097C37.1937 50.3849 33.4208 51.4073 29.7352 52.7688C26.058 54.1273 22.3648 55.861 19.9018 57.6991L21.098 59.3019C23.3332 57.6338 26.8167 55.9792 30.4283 54.6449C34.0314 53.3138 37.6594 52.339 40.1392 51.9903L39.8606 50.0097ZM40.9999 66L40.9999 28.0005L38.9999 28.0005L38.9999 66L40.9999 66ZM40.9999 68.0005L40.9999 64.5005L38.9999 64.5005L38.9999 68.0005L40.9999 68.0005Z" fill="#E6E6E6"/>
<path d="M120 68.0005C135.385 67.9149 148.071 55.4073 148 40.0473C147.928 24.6873 135.385 11.9292 120 12.0005" stroke="#E6E6E6" stroke-width="2"/>
<path d="M121 12C121 11.4477 120.552 11 120 11C119.448 11 119 11.4477 119 12L121 12ZM119 68.0003C119 68.5526 119.448 69.0003 120 69.0003C120.552 69.0003 121 68.5526 121 68.0003L119 68.0003ZM146.822 41.1299C147.375 41.1326 147.824 40.6871 147.827 40.1348C147.83 39.5825 147.384 39.1326 146.832 39.13L146.822 41.1299ZM120.005 39.0002C119.452 38.9975 119.003 39.443 119 39.9953C118.997 40.5476 119.443 40.9975 119.995 41.0001L120.005 39.0002ZM140.098 22.3014C140.541 21.9711 140.632 21.3445 140.301 20.9019C139.971 20.4593 139.344 20.3683 138.902 20.6986L140.098 22.3014ZM138.902 60.8014C139.344 61.1317 139.971 61.0407 140.301 60.5981C140.632 60.1555 140.541 59.5289 140.098 59.1986L138.902 60.8014ZM121.565 66.7958C121.151 67.1612 121.111 67.7931 121.477 68.2072C121.842 68.6213 122.474 68.6608 122.888 68.2954L121.565 66.7958ZM126.286 17.2408L127.063 16.6121L127.061 16.6095L126.286 17.2408ZM122.887 12.2487C122.472 11.8842 121.84 11.9249 121.475 12.3398C121.111 12.7547 121.151 13.3865 121.566 13.7511L122.887 12.2487ZM120 52L119 52L120 52ZM119.861 28.0102C119.314 28.0872 118.933 28.5929 119.01 29.1398C119.087 29.6867 119.592 30.0677 120.139 29.9907L119.861 28.0102ZM121 14.0005C121 13.4482 120.552 13.0005 120 13.0005C119.448 13.0005 119 13.4482 119 14.0005L121 14.0005ZM119 15.5C119 16.0523 119.448 16.5 120 16.5C120.552 16.5 121 16.0523 121 15.5L119 15.5ZM146.832 39.13L120.005 39.0002L119.995 41.0001L146.822 41.1299L146.832 39.13ZM122.888 68.2954C137.713 55.2143 139.573 32.0879 127.063 16.6121L125.508 17.8694C137.353 32.5223 135.577 54.4317 121.565 66.7958L122.888 68.2954ZM127.061 16.6095C125.786 15.0431 124.395 13.5742 122.887 12.2487L121.566 13.7511C122.983 14.9958 124.298 16.3828 125.51 17.8721L127.061 16.6095ZM140.098 59.1986C133.881 54.5594 127.566 51 120 51L120 53C126.9 53 132.777 56.2307 138.902 60.8014L140.098 59.1986ZM119 52L119 68.0003L121 68.0003L121 52L119 52ZM120.139 29.9907C122.806 29.6156 126.579 28.5932 130.265 27.2316C133.942 25.8732 137.635 24.1395 140.098 22.3014L138.902 20.6986C136.667 22.3667 133.183 24.0213 129.572 25.3556C125.968 26.6867 122.34 27.6615 119.861 28.0102L120.139 29.9907ZM119 14.0005L119 52L121 52L121 14.0005L119 14.0005ZM119 12L119 15.5L121 15.5L121 12L119 12Z" fill="#E6E6E6"/>
<path d="M71.9999 41C72.5522 41 72.9999 40.5523 72.9999 40C72.9999 39.4477 72.5522 39 71.9999 39L71.9999 41ZM31.9999 41L71.9999 41L71.9999 39L31.9999 39L31.9999 41Z" fill="#E6E6E6"/>
<path d="M120 41C120.552 41 121 40.5523 121 40C121 39.4477 120.552 39 120 39L120 41ZM106 41L120 41L120 39L106 39L106 41Z" fill="#E6E6E6"/>
<path d="M37.9999 40L53.9999 40" stroke="#E6E6E6" stroke-width="2" stroke-linecap="round" stroke-linejoin="round"/>
<path d="M49 29L49 53" stroke="#E6E6E6" stroke-width="2" stroke-linecap="round" stroke-linejoin="round"/>
<path d="M111 53L111 29" stroke="#E6E6E6" stroke-width="2" stroke-linecap="round" stroke-linejoin="round"/>
<path d="M58 34L58 48" stroke="#E6E6E6" stroke-width="2" stroke-linecap="round" stroke-linejoin="round"/>
<path d="M66 37L66 45" stroke="#E6E6E6" stroke-width="2" stroke-linecap="round" stroke-linejoin="round"/>
<path d="M67.293 62.2929C66.9024 62.6834 66.9024 63.3166 67.293 63.7071C67.6835 64.0976 68.3166 64.0976 68.7072 63.7071L67.293 62.2929ZM77.293 52.2929L67.293 62.2929L68.7072 63.7071L78.7072 53.7071L77.293 52.2929Z" fill="#E6E6E6"/>
<circle cx="89.1492" cy="39.9792" r="16.5996" transform="rotate(-141.697 89.1492 39.9792)" stroke="#E6E6E6" stroke-width="2"/>
<path d="M86.5272 40.312L91.839 40.312" stroke="#E6E6E6" stroke-width="2" stroke-linecap="round" stroke-linejoin="round"/>
<path d="M83.8712 42.9678L86.5271 40.3118" stroke="#E6E6E6" stroke-width="2" stroke-linecap="round" stroke-linejoin="round"/>
<path d="M94.4949 37.6558L91.839 40.3117" stroke="#E6E6E6" stroke-width="2" stroke-linecap="round" stroke-linejoin="round"/>
<path d="M89.1831 35L89.1831 45.6237" stroke="#E6E6E6" stroke-width="2" stroke-linecap="round" stroke-linejoin="round"/>
<path d="M94.4949 42.9678L91.839 40.3118" stroke="#E6E6E6" stroke-width="2" stroke-linecap="round" stroke-linejoin="round"/>
<path d="M83.8712 37.6558L86.5271 40.3117" stroke="#E6E6E6" stroke-width="2" stroke-linecap="round" stroke-linejoin="round"/>
</g>
<defs>
<clipPath id="clip0_2426_5249">
<rect width="160" height="80" fill="white"/>
</clipPath>
</defs>
</svg>
