<svg width="28" height="28" viewBox="0 0 28 28" fill="none" xmlns="http://www.w3.org/2000/svg">
<path d="M20.2759 12.85L21.4569 11.6124L22.4106 10.6131C23.8407 9.11452 23.7285 6.80284 22.16 5.44979V5.44979C20.5915 4.09675 18.1607 4.21471 16.7306 5.71327L12.4612 10.187C11.031 11.6856 11.1432 13.9973 12.7117 15.3503V15.3503L13.0667 15.6566M7.72425 15.1498L6.54321 16.3874L5.58955 17.3867C4.15944 18.8853 4.27162 21.1969 5.84011 22.55C7.40861 23.903 9.83946 23.7851 11.2696 22.2865L15.539 17.8128C16.9691 16.3142 16.8569 14.0025 15.2884 12.6495L14.9334 12.3432" stroke="#00DBFF" stroke-width="2" stroke-linecap="round" stroke-linejoin="round"/>
</svg>
